<?xml version="1.0" standalone="no"?>
<!DOCTYPE svg PUBLIC "-//W3C//DTD SVG 1.1//EN" "http://www.w3.org/Graphics/SVG/1.1/DTD/svg11.dtd" >
<!--
2013-9-30: Created.
-->
<svg>
<metadata>
Created by iconfont
</metadata>
<defs>

<font id="iconfont" horiz-adv-x="1024" >
  <font-face
    font-family="iconfont"
    font-weight="500"
    font-stretch="normal"
    units-per-em="1024"
    ascent="896"
    descent="-128"
  />
    <missing-glyph />
    
    <glyph glyph-name="dingshi" unicode="&#58889;" d="M510.407736-64.414823c-60.290131 0-118.797663 11.81714-173.898609 35.122939-53.199643 22.50148-100.970646 54.706973-141.983735 95.720062s-73.218582 88.784092-95.720062 141.983735c-23.305799 55.101969-35.122939 113.608477-35.122939 173.898609 0 60.290131 11.81714 118.797663 35.122939 173.898609 22.50148 53.200666 54.706973 100.970646 95.720062 141.983735 41.013089 41.014112 88.784092 73.218582 141.983735 95.721085 55.101969 23.305799 113.608477 35.122939 173.898609 35.122939s118.797663-11.81714 173.898609-35.122939c53.199643-22.502503 100.970646-54.706973 141.983735-95.721085 41.013089-41.013089 73.218582-88.784092 95.720062-141.983735 23.305799-55.100946 35.122939-113.608477 35.122939-173.898609 0-60.290131-11.81714-118.797663-35.122939-173.898609-22.50148-53.199643-54.706973-100.970646-95.720062-141.983735s-88.784092-73.218582-141.983735-95.720062C629.205399-52.597683 570.697867-64.414823 510.407736-64.414823zM510.407736 765.591905c-102.377692 0-198.627826-39.868009-271.0206-112.260783-72.392774-72.392774-112.260783-168.642908-112.260783-271.0206s39.868009-198.627826 112.260783-271.0206c72.39175-72.392774 168.642908-112.260783 271.0206-112.260783 102.377692 0 198.62885 39.868009 271.0206 112.260783s112.260783 168.642908 112.260783 271.0206-39.868009 198.627826-112.260783 271.0206S612.786451 765.591905 510.407736 765.591905zM704.347796 383.458671 512.731664 383.458671 512.731664 603.948411 411.414117 603.948411 411.414117 282.141124 704.347796 282.141124Z"  horiz-adv-x="1024" />

    
    <glyph glyph-name="tixingtishi" unicode="&#59082;" d="M513.46384 751.774337c-248.291946 0-449.584462-201.299679-449.584462-449.624371 0-248.296039 201.292516-449.594695 449.584462-449.594695 248.28069 0 449.63665 201.299679 449.63665 449.594695C963.099467 550.474658 761.744529 751.774337 513.46384 751.774337zM473.683834 507.824279c2.690272 35.478026 40.597627 32.423457 40.597627 32.423457s34.488489 2.288113 39.011502-32.225959c0 0 8.162914-181.774997-15.904225-294.366308 0 0-3.746324-14.944364-23.107277-16.22145l0-0.275269c-20.751626 0.539282-24.692379 16.296151-24.692379 16.296151C465.521944 326.052353 473.683834 507.824279 473.683834 507.824279zM513.489422 64.015358c-25.719778 0-46.560432 20.840654-46.560432 46.560432 0 25.710568 20.840654 46.556339 46.560432 46.556339s46.561455-20.845771 46.561455-46.556339C560.050878 84.856012 539.2092 64.015358 513.489422 64.015358z"  horiz-adv-x="1024" />

    
    <glyph glyph-name="huifu" unicode="&#59034;" d="M1024-96.032c0 0-98.112 554.688-597.312 554.688L426.688 672.032 0 288.032l426.688-358.4L426.688 175.712C697.6 175.712 882.688 152.032 1024-96.032L1024-96.032zM1024-96.032"  horiz-adv-x="1024" />

    
    <glyph glyph-name="xiezai" unicode="&#59041;" d="M787.008 706.08 918.144 574.944 667.264 324 720.192 271.136 1024 574.944 787.008 811.936 483.136 508.128 536.128 455.2ZM236.992-106.144 105.92 25.056 385.088 304.16 332.16 357.152 0 25.056 236.992-211.936 569.152 120.16 516.224 173.024ZM742.30992 148.296864l-50.322893-50.322893-378.191021 378.191021 50.322893 50.322893 378.191021-378.191021Z"  horiz-adv-x="1024" />

    
    <glyph glyph-name="htmal5icon09" unicode="&#58918;" d="M511.36862 507.050524c-58.97109 0-104.06717-45.096081-104.06717-104.06717s45.096081-104.06717 104.06717-104.06717 104.06717 45.095058 104.06717 104.06717S570.33971 507.050524 511.36862 507.050524zM511.36862 229.538069c-97.129154 0-173.445284 76.31613-173.445284 173.445284 0 97.129154 76.31613 173.445284 173.445284 173.445284s173.445284-76.31613 173.445284-173.445284C684.813904 305.854199 608.497775 229.538069 511.36862 229.538069zM511.36862 663.151791c-173.445284 0-322.608535-107.536178-381.579625-260.168438 58.97109-152.632259 208.134341-260.168438 381.579625-260.168438s322.608535 107.536178 381.579625 260.168438C833.977155 555.615613 684.813904 663.151791 511.36862 663.151791z"  horiz-adv-x="1024" />

    
    <glyph glyph-name="username" unicode="&#58955;" d="M300.7 515.4c0-20.2 15.5-36.6 34.6-36.6h0.6c7.2-96.8 83.4-193.6 176.5-193.6s169.3 96.8 176.5 193.6h0.6c19.1 0 34.6 16.4 34.6 36.6 0 15-8.4 27.8-20.5 33.5 7 21.8 10.8 45 10.8 69.2 0 118.3-90.4 214.3-202 214.3-111.6 0-202-96-202-214.3 0-24.2 3.8-47.5 10.8-69.2-12.1-5.7-20.5-18.5-20.5-33.5v0 0zM954.6 61.3c-82.4 80.1-183.2 136.6-291.5 163.6-2.7 1.5-5.8 2.3-9 2.3h-9.8c-3.1 0-6.1-0.8-8.9-2.3-32.7-17.5-77.6-27.6-123.1-27.6-45.5 0-90.3 10.1-123.1 27.6-2.7 1.4-5.8 2.2-8.9 2.2h-7.2c-1.5 0-2.9-0.2-4.3-0.5-111.1-26.2-214.4-83.4-298.8-165.3-3.7-3.5-5.7-8.4-5.7-13.5v-67.3c0-10.3 8.4-18.8 18.8-18.8h858.3c10.4 0 18.8 8.4 18.8 18.8v67.3c0.1 5.1-1.9 10-5.6 13.5v0 0zM954.6 61.3z"  horiz-adv-x="1024" />

    
    <glyph glyph-name="shouye" unicode="&#58896;" d="M730.402195 15.943366 293.632597 15.943366c-97.240695 0-123.57548 33.3035-123.57548 137.02377L170.057117 449.945945c0 14.601556 11.485589 26.437116 25.703405 26.437116 14.182001 0 25.666566-11.835559 25.666566-26.437116l0-296.979832c0-75.531254 3.048429-84.182284 72.205509-84.182284l436.769598 0c69.122287 0 81.939197 8.651031 81.939197 84.182284L812.341393 449.945945c0 14.601556 11.520381 26.437116 25.701358 26.437116 14.183024 0 25.703405-11.835559 25.703405-26.437116l0-296.979832C863.746156 49.246867 827.643913 15.943366 730.402195 15.943366L730.402195 15.943366zM527.442714 704.519967 103.526865 376.585123c-4.624321-3.605108-10.04989-5.322216-15.443737-5.322216-7.77508 0-15.47853 3.640923-20.520359 10.5421-8.544607 11.658528-6.26775 28.220738 5.078669 36.976146l423.916872 327.968613c11.344373 8.755408 27.452235 6.445806 35.96205-5.216815C541.063943 729.873402 538.78811 713.309144 527.442714 704.519967L527.442714 704.519967zM956.436208 381.805008c-5.04183-6.9022-12.744255-10.5421-20.519336-10.5421-5.392824 0-10.819416 1.716084-15.442714 5.28947l-423.914826 327.96759c-11.345396 8.7902-13.622252 25.317619-5.079692 36.978193 8.54563 11.660574 24.65247 13.9712 35.963073 5.251607l423.915849-327.968613C962.703959 409.994024 964.981838 393.463536 956.436208 381.805008L956.436208 381.805008z"  horiz-adv-x="1024" />

    
    <glyph glyph-name="iconfontsousuo" unicode="&#58897;" d="M455.494979 90.930807c-194.888903 0-353.441893 158.552792-353.441893 353.434928 0 194.881113 158.55299 353.433905 353.441893 353.433905S808.944036 639.246848 808.944036 444.365735C808.944036 249.484622 650.383882 90.930807 455.494979 90.930807M455.494979 710.805484c-146.920627 0-266.44426-119.526018-266.44426-266.439749 0-146.914754 119.523633-266.440772 266.44426-266.440772s266.4504 119.526018 266.4504 266.440772C721.945379 591.279466 602.415606 710.805484 455.494979 710.805484M868.304189-21.954991c-13.70566 0-27.402111 5.228061-37.85865 15.678043L645.790086 178.363961c-20.905916 20.906104-20.905916 54.804077 0 75.714274 20.914103 20.899964 54.806268 20.899964 75.718324 0l184.654429-184.640908c20.90694-20.906104 20.90694-54.804077 0-75.714274C895.705277-16.72693 882.008826-21.954991 868.304189-21.954991"  horiz-adv-x="1024" />

    
    <glyph glyph-name="wenhaofill" unicode="&#59180;" d="M512 832c-247.039484 0-448-200.960516-448-448S264.960516-64 512-64 960 136.960516 960 384 759.039484 832 512 832zM512 63.647359c-26.496224 0-48.00043 21.504206-48.00043 48.00043 0 26.496224 21.504206 48.00043 48.00043 48.00043s48.00043-21.504206 48.00043-48.00043S538.496224 63.647359 512 63.647359zM600.576482 390.815428c-27.839699-27.808735-56.575622-56.544658-56.575622-82.368284l0-54.112297c0-17.664722-14.336138-32.00086-32.00086-32.00086s-32.00086 14.336138-32.00086 32.00086l0 54.112297c0 52.352533 39.999785 92.352318 75.32751 127.647359 25.887273 25.887273 52.67249 52.639806 52.67249 73.984034 0 53.343368-43.07206 96.735385-95.99914 96.735385-53.823303 0-95.99914-41.535923-95.99914-94.559333 0-17.664722-14.336138-31.99914-32.00086-31.99914s-32.00086 14.336138-32.00086 31.99914c0 87.423948 71.775299 158.559333 160.00086 158.559333s160.00086-72.095256 160.00086-160.735385C672.00086 462.208843 635.680581 425.919527 600.576482 390.815428z"  horiz-adv-x="1024" />

    
    <glyph glyph-name="guazai" unicode="&#59000;" d="M236.8-128l-236.8 236.8 787.2 787.2 236.8-236.8-787.2-787.2zM108.8 108.8l128-134.4 678.4 684.8-134.4 128-672-678.4z"  horiz-adv-x="1024" />

    
    <glyph glyph-name="yuncunchu" unicode="&#59091;" d="M870.4 838.4c-89.6 38.4-217.6 57.6-358.4 57.6s-268.8-19.2-358.4-57.6c-102.4-44.8-153.6-96-153.6-160v-595.2c0-57.6 51.2-115.2 153.6-153.6 89.6-38.4 217.6-57.6 358.4-57.6s268.8 19.2 358.4 57.6c96 38.4 153.6 96 153.6 153.6v595.2c0 64-51.2 115.2-153.6 160v0zM812.8 576c-83.2-32-198.4-44.8-300.8-44.8-108.8 0-217.6 12.8-300.8 44.8-96 25.6-140.8 64-140.8 102.4s51.2 76.8 140.8 108.8c83.2 32 192 44.8 300.8 44.8 102.4 0 217.6-19.2 300.8-44.8 89.6-32 140.8-70.4 140.8-108.8s-44.8-76.8-140.8-102.4v0zM819.2 390.4c-83.2-25.6-198.4-44.8-307.2-44.8-108.8 0-217.6 19.2-307.2 44.8-89.6 32-140.8 70.4-140.8 108.8v70.4c64-25.6 108.8-57.6 179.2-70.4 83.2-19.2 172.8-32 268.8-32 96 0 185.6 12.8 268.8 32 70.4 12.8 115.2 44.8 179.2 70.4v-76.8c0-32-51.2-70.4-140.8-102.4v0zM819.2 185.6c-83.2-25.6-198.4-44.8-307.2-44.8-108.8 0-217.6 19.2-307.2 44.8-89.6 25.6-140.8 64-140.8 108.8v96c64-32 108.8-57.6 179.2-76.8 83.2-19.2 172.8-32 268.8-32 96 0 185.6 12.8 268.8 32 70.4 19.2 115.2 44.8 179.2 76.8v-96c0-44.8-51.2-83.2-140.8-108.8v0zM512-64c-108.8 0-217.6 19.2-307.2 44.8-89.6 25.6-140.8 64-140.8 108.8v96c64-32 108.8-57.6 179.2-76.8 76.8-19.2 172.8-32 262.4-32 96 0 185.6 12.8 268.8 32 76.8 19.2 121.6 44.8 185.6 76.8v-96c0-38.4-51.2-76.8-140.8-108.8-83.2-32-204.8-44.8-307.2-44.8v0zM512-64z"  horiz-adv-x="1024" />

    
    <glyph glyph-name="rongliangxingyunyingpan" unicode="&#59156;" d="M960 95.232l-70.4 800.768h-761.6l-64-807.168v-216.832h896v223.232zM825.6 832l64-704h-761.6l64.192 704h633.408zM128-64v128h768v-128h-768zM768 37.632h64v-64h-64v64zM659.2 37.632h64v-64h-64v64zM256 709.312h512v-66.688h-512v66.688zM224 509.312h576v-66.688h-576v66.688zM192 323.456h640v-66.688h-640v66.688z"  horiz-adv-x="1024" />

    
    <glyph glyph-name="shuaxin1" unicode="&#58923;" d="M320.067666 609.562269c53.150524 53.15564 126.532835 86.077447 207.455889 86.077447 89.598644 0 172.483376-40.805358 227.39501-108.063181l-101.596909-101.603049 251.597225 0L904.918881 737.575828l-90.333378-90.361007C743.985562 729.792561 639.765919 779.506822 527.524578 779.506822c-104.055914 0-198.409862-42.322921-266.757506-110.670565-49.444109-49.455365-84.98865-112.251573-100.999298-182.862771l86.263689 0C260.052804 533.647275 285.750069 575.255928 320.067666 609.562269L320.067666 609.562269zM734.974327 194.655607c-53.151547-53.15564-126.533858-86.083587-207.450772-86.083587-89.599667 0-172.488493 40.810474-227.402173 108.069321l101.603049 101.596909L150.122089 318.23825 150.122089 66.641025l90.333378 90.333378c70.601988-82.555228 174.820608-132.270513 287.067065-132.270513 104.055914 0 198.402699 42.306548 266.750343 110.650099 49.360198 49.397037 84.866876 112.477724 100.920504 182.883237L808.689213 318.237227C794.560424 271.00346 768.983909 228.661096 734.974327 194.655607L734.974327 194.655607z"  horiz-adv-x="1024" />

    
    <glyph glyph-name="xuniwangqia81" unicode="&#59170;" d="M512-128l-441.6 256L70.4 640 512 896l441.6-256 0-512L512-128zM902.4 160l0 448L512 832 121.6 608l0-448L512-64 902.4 160zM512.5 99.75c23.75 0 36.25 12.5 36.25 36.25 0 23.75-12.5 36.25-36.25 36.25-23.75 0-36.25-12.5-36.25-36.25C476.25 112.25 488.75 99.75 512.5 99.75zM868.75 456l-51.25-51.25C733.75 489.75 631.25 531 512.5 531s-221.25-42.5-305-126.25l-51.25 51.25c46.25 46.25 100 82.5 160 107.5 62.5 26.25 127.5 40 196.25 40s133.75-13.75 196.25-40C768.75 538.5 822.5 502.25 868.75 456L868.75 456zM257.5 353.5c70 70 155 105 255 105s183.75-35 253.75-105l-51.25-51.25c-56.25 56.25-123.75 85-203.75 85-80 0-147.5-28.75-203.75-85L257.5 353.5zM665 252.25l-51.25-51.25c-28.75 28.75-62.5 42.5-101.25 42.5-40 0-73.75-13.75-101.25-42.5l-51.25 51.25c42.5 42.5 93.75 62.5 152.5 62.5S622.5 294.75 665 252.25z"  horiz-adv-x="1024" />

    
    <glyph glyph-name="ai-tool" unicode="&#58920;" d="M981.76 814.976c-56.384 56.896-147.712 56.896-204.032 0l-360.704-364.16 204.032-206.080 360.704 364.16c56.384 56.96 56.384 149.184 0 206.080zM539.456 446.336l-24.32 24.512 305.024 308.032c6.656 6.72 17.536 6.72 24.384 0 6.656-6.72 6.656-17.728 0-24.512l-305.088-308.032zM590.272 395.136l-24.384 24.512 330.432 333.504c6.656 6.784 17.536 6.784 24.32 0.064 6.656-6.784 6.656-17.728-0.128-24.512l-330.24-333.568zM641.024 343.872l-24.384 24.512 304.96 307.968c6.656 6.784 17.536 6.72 24.256 0s6.656-17.728 0-24.512l-304.832-307.968zM351.296 79.36l-18.496 18.688 169.984 171.712-66.816 67.52-170.048-171.712-18.176 18.368-40-21.056-133.696-218.624 39.808-40.256 214.72 133.76zM227.904 864c-19.584 0-38.4-2.752-56.512-7.424 1.792-1.6 3.904-2.816 5.568-4.608l82.176-82.944c41.856-42.24 41.856-110.848 0-153.088-41.856-42.24-109.76-42.24-151.616 0l-82.176 82.88c-4.288 4.352-7.872 9.152-11.328 14.016-8.896-24.704-14.016-51.136-14.016-78.912 0-127.040 102.016-230.016 227.904-230.016 125.824 0 227.84 103.040 227.84 230.080 0 127.040-102.080 230.016-227.84 230.016zM924.224-46.016c49.408 49.984 49.408 131.008 0 180.992l-182.016 183.616-179.264-180.864 182.144-183.744c49.472-49.92 129.664-49.92 179.136 0zM802.752 76.672c20.48 20.672 53.632 20.672 74.112 0s20.48-54.208 0-74.944c-20.48-20.608-53.632-20.608-74.112 0-20.48 20.8-20.48 54.272 0 74.944z"  horiz-adv-x="1025" />

    
    <glyph glyph-name="anquan1" unicode="&#58919;" d="M555.426046-45.379235C535.235437-56.331582 520.565524-61.206713 507.876828-61.206713 495.099089-61.206713 480.852133-56.376104 460.327611-45.023061 117.888653 144.17207 119.023958 247.796418 123.231262 633.376939 123.654219 671.710157 124.099436 712.625636 124.233001 756.457288 177.280653 772.173462 234.001349 786.999201 293.170741 800.578332 357.794046 815.426332 429.674394 825.020766 506.763785 829.139027 653.440654 812.866332 765.947089 791.406853 887.803089 756.25694 888.025698 706.726506 888.671263 660.980418 889.227785 618.595722 894.548133 231.033983 895.839263 138.940765 555.426046-45.379235M956.010394 619.508418C955.342568 668.704939 954.607959 722.375897 954.496654 781.322679 954.474394 796.037114 944.790915 809.015201 930.677524 813.222506 794.619089 854.04894 673.163785 877.979375 511.394046 895.810332 509.613176 896.010679 507.810046 896.03294 506.029176 895.966158 424.020133 891.736592 347.375959 881.541114 278.211436 865.669114 208.623958 849.68581 142.264306 832.010679 81.046914 813.155723 67.067088 808.859375 57.494914 795.903549 57.494914 781.255897 57.494914 728.208245 56.938393 679.367897 56.470914 634.111548 52.241349 249.087548 50.660827 105.0152 428.027089-103.480104 459.147785-120.665495 483.033698-127.989321 507.876828-127.989321 532.274741-127.989321 556.761698-120.620974 587.236828-104.125669 963.156133 99.472244 961.508828 220.037113 956.010394 619.508418M741.989941 604.642609 440.88942 302.406783 293.077246 450.730957C275.736027 468.116696 247.531506 468.183479 230.101245 450.842261 212.693245 433.478783 212.648723 405.296522 229.98994 387.866261L409.345768 207.887131C417.715854 199.517044 429.046637 194.797739 440.88942 194.797739 452.732202 194.797739 464.085246 199.517044 472.433072 207.909392L805.077246 541.822435C822.418463 559.230435 822.373941 587.434957 804.943681 604.776174 787.557941 622.117392 759.331159 622.095131 741.989941 604.642609"  horiz-adv-x="1024" />

    
    <glyph glyph-name="wangluo" unicode="&#59111;" d="M955.392 381.44c0 242.688-196.608 439.296-439.296 439.296C273.408 820.736 76.8 624.128 76.8 381.44c0-242.688 196.608-439.296 439.296-439.296 116.224 0 221.696 45.056 300.032 118.784 5.12 1.536 9.728 4.096 13.312 8.704 3.072 3.072 5.12 6.656 6.656 10.752C909.824 159.232 955.392 264.704 955.392 381.44zM481.792 2.048c-0.512 1.024-1.536 1.536-2.56 2.56-47.104 40.96-85.504 89.6-114.176 143.36 38.4 15.872 79.36 25.6 121.856 28.672l0-174.592C485.376 2.048 483.328 2.048 481.792 2.048zM136.192 353.28l113.152 0c3.072-61.44 16.384-121.344 38.912-177.664-21.504-12.288-41.472-26.112-60.928-41.984C175.616 193.536 142.336 269.824 136.192 353.28zM230.4 633.344c18.944-15.36 38.912-28.672 59.392-40.96-23.552-56.832-37.376-118.272-40.448-180.736L136.704 411.648C143.36 496.128 177.664 572.928 230.4 633.344zM549.376 760.832c1.024-1.024 1.536-2.048 3.072-3.072 45.568-39.424 83.456-86.528 111.616-138.24-37.888-15.36-77.824-24.576-118.784-27.648l0 168.96C546.816 760.832 548.352 760.832 549.376 760.832zM895.488 411.648l-113.152 0c-3.584 62.464-17.408 123.392-40.96 180.736 20.992 11.776 40.96 25.6 59.904 40.96C854.528 572.928 888.832 496.128 895.488 411.648zM486.912 411.648 308.224 411.648c3.072 53.76 15.36 105.984 34.816 155.136 45.568-18.944 94.208-30.208 143.872-33.28L486.912 411.648zM486.912 353.28l0-117.76c-50.688-3.072-99.84-14.848-145.92-33.792-18.432 48.128-29.696 99.328-32.768 151.552L486.912 353.28zM545.28 353.28l178.176 0c-3.072-52.736-14.336-103.936-32.768-152.064-46.08 19.456-95.232 30.72-145.408 34.304L545.28 353.28zM545.28 411.648 545.28 533.504c49.664 3.072 98.304 14.336 143.36 32.768 19.456-49.152 31.232-101.376 34.816-154.624L545.28 411.648zM716.8 645.632c-17.408 31.744-37.376 61.952-60.928 90.112 37.888-14.848 72.704-35.84 103.424-61.44C745.472 663.552 731.136 653.824 716.8 645.632zM486.912 761.344l0-168.96c-40.96 3.072-81.408 12.288-118.784 27.648 28.16 51.712 65.536 98.304 111.104 137.728 1.024 1.024 2.56 2.56 3.584 3.584C483.84 760.832 485.376 760.832 486.912 761.344zM315.392 645.632c-14.848 8.704-28.672 18.432-42.496 28.672 30.72 25.6 65.536 46.08 102.912 60.928C352.768 707.584 332.288 677.376 315.392 645.632zM312.832 121.856c17.408-33.28 38.4-65.024 62.464-94.208-38.912 15.36-74.752 37.376-106.496 64C283.136 102.912 297.984 112.64 312.832 121.856zM545.28 1.536l0 174.592c41.984-3.072 82.944-12.8 121.344-28.672-28.672-53.76-67.072-102.4-114.176-143.36-1.024-1.024-1.536-1.536-2.56-2.56C548.352 2.048 546.816 2.048 545.28 1.536zM718.848 121.344c14.848-9.216 29.696-18.944 43.52-30.208-31.232-26.624-67.072-48.128-105.984-63.488C680.448 56.32 701.44 88.064 718.848 121.344zM743.936 175.104c22.528 56.32 35.84 116.736 38.912 178.176L896 353.28c-6.144-83.968-39.936-160.256-91.648-220.672C784.896 148.48 764.928 162.816 743.936 175.104z"  horiz-adv-x="1024" />

    
    <glyph glyph-name="zhuji" unicode="&#59228;" d="M886.053 512.592h-756.151c-51.967 0-67.751-26.649-67.751-61.328v-131.943c0-50.951 26.569-61.436 67.751-61.436h756.148c42.032 0 67.751 20.234 67.751 61.328v131.943c0.001 43.703-19.074 61.436-67.749 61.436v0zM894.639 316.868h-771.169v135.728h771.17l-0.001-135.728zM724.29 361.322h90.123c6.202 0 11.291 4.773 11.291 10.628v21.255c0 5.858-5.036 10.628-11.291 10.628h-90.123c-6.202 0-11.241-4.718-11.241-10.628v-21.255c0-5.858 5.036-10.628 11.241-10.628v0zM188.128 403.341h42.51v-42.509h-42.51v42.509zM274.159 404.328h42.51v-42.509h-42.51v42.509zM362.337 403.341h42.51v-42.509h-42.51v42.509zM447.287 402.28h42.51v-42.511h-42.51v42.511zM886.053 192.699h-756.151c-51.967 0-67.751-26.649-67.751-61.328v-131.943c0-50.95 26.569-61.435 67.751-61.435h756.148c42.032 0 67.751 20.236 67.751 61.328v131.943c0.001 43.698-19.074 61.435-67.749 61.435v0zM894.639-3.023h-771.169v135.728h771.17l-0.001-135.728zM724.29 41.435h90.123c6.202 0 11.291 4.771 11.291 10.627v21.258c0 5.858-5.036 10.627-11.291 10.627h-90.123c-6.202 0-11.241-4.718-11.241-10.627v-21.258c0-5.858 5.036-10.627 11.241-10.627v0zM188.128 83.453h42.51v-42.51h-42.51v42.51zM274.159 84.439h42.51v-42.509h-42.51v42.509zM362.337 83.453h42.51v-42.51h-42.51v42.51zM447.287 82.389h42.51v-42.51h-42.51v42.51zM886.053 831.415h-756.151c-51.967 0-67.751-26.649-67.751-61.328v-131.943c0-50.951 26.569-61.436 67.751-61.436h756.148c42.032 0 67.751 20.236 67.751 61.328v131.943c0.001 43.706-19.074 61.436-67.749 61.436v0zM894.639 635.693h-771.169v135.728h771.17l-0.001-135.728zM724.29 681.215h90.123c6.202 0 11.291 4.771 11.291 10.627v21.258c0 5.858-5.036 10.627-11.291 10.627h-90.123c-6.202 0-11.241-4.718-11.241-10.627v-21.258c0-5.858 5.036-10.627 11.241-10.627v0zM188.128 723.229h42.51v-42.509h-42.51v42.509zM274.159 724.218h42.51v-42.51h-42.51v42.51zM362.337 723.229h42.51v-42.509h-42.51v42.509zM447.287 722.168h42.51v-42.51h-42.51v42.51z"  horiz-adv-x="1024" />

    
    <glyph glyph-name="edit-1-copy" unicode="&#58899;" d="M786.637-93.867h-615.731c-56.593 0-102.639 46.046-102.639 102.639v684.169c0 56.593 46.046 102.639 102.639 102.639h478.925c18.91 0 34.202-15.326 34.202-34.202s-15.292-34.202-34.202-34.202h-478.925c-18.842 0-34.202-15.36-34.202-34.202v-684.169c0-18.876 15.36-34.202 34.202-34.202h615.765c18.876 0 34.202 15.326 34.202 34.202v547.294c0 18.876 15.292 34.202 34.202 34.202s34.202-15.326 34.202-34.202v-547.328c0-56.593-46.046-102.639-102.639-102.639v0zM585.66 453.461c-8.772 0-17.51 3.345-24.166 10.035-13.38 13.38-13.38 34.987 0 48.367l339.968 339.968c13.38 13.38 34.987 13.38 48.367 0 13.38-13.38 13.38-34.987 0-48.367l-339.968-339.968c-6.656-6.69-15.428-10.035-24.201-10.035v0zM444.553 453.461h-205.244c-18.876 0-34.202 15.326-34.202 34.202s15.326 34.202 34.202 34.202h205.244c18.876 0 34.202-15.326 34.202-34.202s-15.326-34.202-34.202-34.202v0zM649.83 248.218h-410.522c-18.876 0-34.202 15.292-34.202 34.202s15.326 34.202 34.202 34.202h410.487c18.91 0 34.202-15.292 34.202-34.202 0.034-18.91-15.258-34.202-34.167-34.202v0zM649.83 248.218z"  horiz-adv-x="1024" />

    
    <glyph glyph-name="yunjingxiang71" unicode="&#59218;" d="M350 744.75c-12.5 5-26.25 0-33.75-12.5L17.5 112.25c-6.25-11.25-7.5-18.75-2.5-30 5-11.25 15-18.75 26.25-18.75l298.75 0c16.25 0 30 8.75 30 28.75L370 711C371.25 726 362.5 739.75 350 744.75zM311.25 127.25 100 127.25l211.25 476.25L311.25 127.25 311.25 127.25zM1006.25 112.25 707.5 732.25c-7.5 12.5-21.25 17.5-33.75 12.5-12.5-5-20-17.5-20-33.75l0-612.5c0-18.75 13.75-35 30-35l298.75 0c11.25 0 21.25 7.5 26.25 18.75C1013.75 94.75 1012.5 102.25 1006.25 112.25zM712.5 127.25 712.5 603.5l211.25-476.25L712.5 127.25zM512.5-95.25 512.5-95.25c-17.5 0-32.5 13.75-32.5 32.5L480 828.5c0 17.5 13.75 32.5 32.5 32.5l0 0c17.5 0 32.5-13.75 32.5-32.5l0-892.5C543.75-81.5 530-95.25 512.5-95.25z"  horiz-adv-x="1024" />

    
    <glyph glyph-name="weibiaoti2010104" unicode="&#58938;" d="M876.8 550.4c-12.8 0-25.6-12.8-25.6-25.6 0 0 0 0 0 0l0-518.4c0-6.4-6.4-12.8-12.8-12.8l-704 0c-6.4 0-12.8 6.4-12.8 12.8l0 704c0 6.4 6.4 12.8 12.8 12.8l518.4 0c12.8 0 25.6 12.8 25.6 25.6 0 12.8-12.8 25.6-25.6 25.6L134.4 774.4C96 774.4 64 748.8 64 710.4l0-704C64-32 96-64 134.4-64l704 0c38.4 0 70.4 32 70.4 70.4L908.8 524.8l0 0C902.4 537.6 889.6 550.4 876.8 550.4M953.6 825.6c-12.8 12.8-25.6 12.8-38.4 0l-620.8-620.8c-12.8-12.8-12.8-25.6 0-38.4 6.4-6.4 12.8-6.4 19.2-6.4 6.4 0 12.8 0 19.2 6.4l620.8 620.8C960 793.6 960 812.8 953.6 825.6z"  horiz-adv-x="1024" />

    
    <glyph glyph-name="tuisongxiaoxi" unicode="&#58909;" d="M541.489-66.848h466.264v-54.5h-466.264v54.5zM815.614 261.042c0.565-0.156 1.143-0.316 1.745-0.487l3.591-0.415c26.136 0.023 32.152 6.039 32.152 32.044 0 15.597-12.016 28.269-22.096 36.151l-0.234 0.207-2.094 2.095c-37.441 28.725-78.511 57.723-125.139 75.359l-4.051 1.533 3.298 2.808c61.054 51.983 96.069 127.366 96.069 206.821 0 150.268-123.21 272.52-274.655 272.52-151.419 0-274.607-122.252-274.607-272.52 0-79.447 35.006-154.83 96.043-206.821l3.289-2.802-4.037-1.537c-192.564-73.31-322.008-259.831-322.105-464.131v-0.127c0.062-16.971 5.007-45.456 37.414-45.456 25.455 0 27.339 16.936 27.415 44.828 0 115.383 36.419 220.364 102.551 295.595 36.242 41.231 80.924 73.326 132.802 95.395 55.888 23.773 120.090 35.829 190.825 35.829 3.501 0 6.92-0.028 10.453-0.086 94.623-1.557 201.020-38.032 264.758-90.761 15.771-13.050 20.084-14.241 26.614-16.041zM530.405 416.067c-2.081 0-4.196 0.032-6.282 0.093-66.583 0.129-122.437 22.236-161.45 63.933-33.673 35.989-52.985 85.946-52.985 137.064 0 24.347 5.032 50.066 14.549 74.38 9.758 24.928 24.325 48.534 42.126 68.267 19.278 21.372 41.998 38.194 67.525 49.999 27.831 12.871 58.318 19.397 90.615 19.397 37.268 0 70.822-6.585 99.729-19.571 26.168-11.756 48.581-28.746 66.614-50.497 31.275-37.722 48.499-88.549 48.499-143.118 0-48.028-21.606-97.631-59.28-136.087-40.341-41.181-93.492-63.859-149.661-63.859zM541.489 106.53h466.264v-54.475h-466.264v54.475z"  horiz-adv-x="1024" />

    
    <glyph glyph-name="swticontuichu1" unicode="&#58947;" d="M511.498 384c18.144 0 33.434 4.63 45.862 13.896 12.432 9.27 18.64 20.414 18.64 33.432L576 783.926c0 13.024-6.208 24.29-18.64 33.804-12.434 9.518-27.716 14.27-45.862 14.27-17.472 0-32.426-4.752-44.856-14.27-12.432-9.516-18.642-20.782-18.642-33.804l0-352.598c0-13.016 6.21-24.162 18.642-33.432C479.072 388.632 494.028 384 511.498 384zM948.868 493.694c-8.714 35.188-21.456 68.536-38.208 100.044-16.756 31.5-36.866 60.824-60.324 87.97-23.462 27.144-50.28 51.448-80.438 72.896-81.418-2.83-72.648-62.362-58.444-90.706 91.544-63.3 151.54-168.996 151.54-288.716 0-193.734-157.052-350.79-350.786-350.79-193.738 0-350.788 157.054-350.788 350.79 0 115.358 55.692 217.704 141.65 281.638 11.788 27.692 16.338 90.556-59.018 90.744-28.156-21.452-53.628-45.58-76.414-72.394-22.79-26.808-41.892-55.63-57.316-86.464-15.414-30.836-27.312-63.34-35.696-97.524-8.378-34.186-12.562-69.044-12.562-104.566 0-62.346 11.728-120.824 35.194-175.458 23.454-54.622 55.628-102.214 96.518-142.766 40.888-40.56 88.644-72.728 143.278-96.524 54.632-23.796 112.778-35.7 174.45-35.7 62.33 0 120.818 11.9 175.44 35.7 54.632 23.794 102.218 55.962 142.782 96.524 40.55 40.542 72.722 88.138 96.518 142.766 23.8 54.632 35.694 113.112 35.694 175.454C961.936 422.814 957.576 458.5 948.868 493.694z"  horiz-adv-x="1024" />

    
    <glyph glyph-name="icon01" unicode="&#59030;" d="M806.4 585.856 217.6 585.856c-1.408 0-2.56-1.152-2.56-2.56l0-55.296c0-1.408 1.152-2.56 2.56-2.56l588.8 0c1.408 0 2.56 1.152 2.56 2.56l0 55.296C808.96 584.704 807.808 585.856 806.4 585.856zM806.4 411.136 217.6 411.136c-1.408 0-2.56-1.152-2.56-2.56L215.04 353.28c0-1.408 1.152-2.56 2.56-2.56l588.8 0c1.408 0 2.56 1.152 2.56 2.56l0 55.296C808.96 409.984 807.808 411.136 806.4 411.136zM806.4 236.288 217.6 236.288c-1.408 0-2.56-1.152-2.56-2.56l0-55.296c0-1.408 1.152-2.56 2.56-2.56l588.8 0c1.408 0 2.56 1.152 2.56 2.56l0 55.296C808.96 235.136 807.808 236.288 806.4 236.288z"  horiz-adv-x="1024" />

    
    <glyph glyph-name="xinxi" unicode="&#58910;" d="M598.853745 433.626501C598.853745 436.047306 598.853745 436.047306 596.432942 436.047306L596.432942 436.047306C596.432942 438.46811 594.012134 440.888912 591.591332 443.309717L591.591332 443.309717C589.170529 445.730521 589.170529 448.151324 586.749727 450.572128L584.328924 452.992932C581.908116 455.413737 581.908116 455.413737 579.487314 457.83454 577.066511 457.83454 577.066511 460.255344 574.645709 460.255344L572.224906 462.676148C569.804099 462.676148 567.383296 465.096952 564.962493 465.096952L562.541691 465.096952 560.120883 465.096952 555.279278 465.096952 555.279278 465.096952C548.016865 465.096952 538.33365 465.096952 531.071239 462.676148L492.338379 455.413735C465.709538 448.151324 451.184715 421.522483 458.447127 397.314444 463.288734 382.789622 472.97195 370.685604 485.075968 365.843994L434.239089 179.442104C429.397481 164.917284 434.239089 150.392458 441.5015 138.28844L443.922304 135.867638 446.343109 133.44683C458.447127 121.342812 475.392754 114.080404 494.759183 118.92201L540.754458 131.026028C567.383296 138.28844 581.908122 164.917279 574.645709 189.12532 569.804104 203.65014 560.120883 215.754158 545.596063 220.595768L594.01214 404.576856C601.274547 414.26007 601.274547 423.943286 598.853745 433.626501L598.853745 433.626501ZM661.794642 874.212789C390.664619 946.836903 112.272185 787.063853 39.648072 515.933829-32.976042 244.803804 126.797008-33.588628 397.927032-106.212741 538.33365-142.5248 678.74027-118.316759 792.518047-48.113454L792.518047-48.113454C807.042872-40.851041 816.726088-23.905413 816.726088-6.95979 816.726088 19.669053 794.938854 41.456287 768.310011 41.456287 758.626796 41.456287 748.94358 39.035484 739.260365 31.773071 647.269821-23.905413 533.492045-43.271844 422.135072-11.801395 201.841927 46.297892 73.539327 271.432648 131.638618 491.725791 189.737908 712.018935 414.87266 840.321535 635.165804 782.222244 855.458949 724.122954 983.761551 498.988202 925.662259 278.695055 915.979044 239.962194 899.033416 206.070943 879.666985 172.179692L879.666985 172.179692C874.82538 164.917279 872.404577 155.234063 872.404577 145.550848 872.404577 118.92201 894.191811 97.134776 920.820649 97.134776 937.766277 97.134776 954.711905 106.817992 961.974313 121.342812L961.974313 121.342812C986.182354 162.496476 1005.548785 206.070943 1017.652803 252.066217 1095.11852 523.19624 932.924667 801.588676 661.794642 874.212789L661.794642 874.212789ZM625.482588 578.874728C632.744996 610.345178 615.799373 641.815626 584.328924 649.078038 552.85847 656.340449 521.388025 639.394822 514.125614 607.924374 506.863202 576.453925 523.808829 544.983476 555.279278 537.721064 586.749727 530.458652 618.220175 549.825083 625.482588 578.874728L625.482588 578.874728Z"  horiz-adv-x="1076" />

    
    <glyph glyph-name="yingpan" unicode="&#58928;" d="M701.959 512.83h64v-64h-64zM863.713 639.709h-704c-17.673 0-32-14.327-32-32v-477.091c0-17.673 14.327-32 32-32h704c17.673 0 32 14.327 32 32V607.709c0 17.673-14.327 32-32 32z m-672-477.091V377.822c53.923-6.925 103.774-31.299 142.848-70.372 39.553-39.553 64.05-90.147 70.626-144.831H191.713z m640 0H469.557c-6.827 71.809-38.082 138.427-89.74 190.086-51.183 51.182-117.052 82.334-188.103 89.544V575.709h640v-413.091z"  horiz-adv-x="1024" />

    
    <glyph glyph-name="738bianjiqi_chaolianjie" unicode="&#58979;" d="M379.064 102.743c-20.447-20.383-53.6-20.383-74.113 0l-74.18 74.18c-20.447 20.51-20.447 53.666 0 74.177l95.916 95.853L416.734 437c-40.184 23.737-92.627 18.577-127.137-15.87l-132.94-133.004c-40.96-40.896-40.96-107.333 0-148.23L267.86 28.694c40.96-41.025 107.334-41.025 148.295 0l132.94 132.876c34.51 34.447 39.543 86.951 15.932 127.201L379.064 102.743z m488.292 525.445L756.152 739.392c-40.96 40.894-107.334 40.894-148.294 0l-132.94-133.007c-34.51-34.444-39.54-86.82-15.933-127.07L644.95 665.213c20.446 20.513 53.603 20.513 74.114 0l74.114-74.178c20.514-20.513 20.514-53.666 0-74.18l-185.9-185.898c40.187-23.609 92.628-18.576 127.135 15.997l132.943 132.877c40.958 41.024 40.958 107.333 0 148.357z m-497.514-367.8l18.51-18.575c15.353-15.351 40.25-15.351 55.603 0l210.217 210.28c15.414 15.353 15.414 40.25 0 55.603l-18.513 18.577c-15.353 15.35-40.25 15.35-55.604 0l-210.213-210.28c-15.416-15.354-15.416-40.25 0-55.604z m0 0"  horiz-adv-x="1024" />

    
    <glyph glyph-name="739bianjiqi_qingchuchaolianjie" unicode="&#58980;" d="M596.13 532.449c-33.741-2.533-64.436-5.088-95.175-6.824-3.786-0.214-8.597 3.094-11.58 6.2-34.374 35.79-68.464 71.883-102.679 107.844-22.96 24.133-45.153 24.243-67.882 0.43-17.964-18.82-35.947-37.624-53.846-56.513-18.648-19.68-18.88-43.058-0.312-62.654 35.245-37.2 70.83-74.05 105.818-111.513 3.76-4.027 6.577-11.262 6.31-16.821-1.506-31.356-4.09-62.655-6.526-97.083-9.485 8.004-17.545 13.67-24.317 20.702-47.472 49.288-94.89 98.639-141.911 148.4-45.14 47.769-44.968 127.189 0.016 175.225 20.256 21.63 40.773 42.993 61.297 64.343 48.1 50.036 123.13 51.937 171.776 2.3 48.977-49.978 96.245-101.804 144.06-153.027 5.07-5.431 8.788-12.25 14.951-21.009z m58.742-61.098c9.195-7.83 17.16-13.515 23.883-20.515C725.6 402.06 772.469 353.302 818.78 303.97c47.85-50.97 47.142-127.85-1.165-178.303-23.238-24.268-45.9-49.278-70.5-71.948-44.458-40.97-114.805-38.045-156.738 5.577-48.803 50.768-97.186 101.983-145.589 153.175-5.659 5.986-10.278 13.054-16.834 21.494 23.147 2.092 44.222 2.14 64.537 6.29 27.021 5.518 45.678-3.478 63.596-25.081 25.837-31.15 54.918-59.346 82.764-88.647 20.378-21.443 44.175-21.72 64.926-0.712 17.976 18.198 35.811 36.555 53.417 55.148 20.789 21.953 20.82 46.954-0.107 69.13-34.345 36.393-69.138 72.325-103.286 108.92-3.767 4.037-6.698 11.261-6.382 16.777 1.757 30.623 4.64 61.174 7.452 95.561zM233.831 74.997c-12.824 0.137-19.212 10.857-14.858 20.113 1.34 2.848 3.629 5.306 5.81 7.6 33.081 34.797 66.194 69.56 99.387 104.24 2.44 2.55 5.432 5.986 8.368 6.218 4.947 0.392 11.737 0.261 14.62-2.848 2.845-3.07 2.687-10.202 2.148-15.357-0.326-3.108-3.605-6.143-6.045-8.699-32.607-34.13-65.245-68.227-98.043-102.154-3.963-4.1-8.909-7.158-11.387-9.113z m454.977 477.448c-11.813 0.285-18.235 9.377-14.822 18.104 1.843 4.712 5.361 8.975 8.873 12.653 32.053 33.57 64.246 66.993 96.485 100.366 2.727 2.823 6.071 6.949 9.165 6.984 5.18 0.058 11.655-1.29 15.146-4.752 2.343-2.325 1.32-9.544 0.206-14.149-0.773-3.197-4.1-5.84-6.56-8.445-31.893-33.74-63.76-67.509-95.856-101.033-4.214-4.4-9.674-7.486-12.637-9.728z m-56.163 112.058c-0.001-22.133-0.096-44.265 0.043-66.395 0.06-9.446-2.784-16.339-12.834-16.726-10.704-0.41-14.122 6.49-14.109 16.583 0.056 44.263-0.06 88.526 0.07 132.79 0.039 12.896 4.742 18.906 13.918 18.207 10.638-0.81 13.064-8.282 12.975-18.064-0.2-22.13-0.061-44.263-0.063-66.395zM243.552 257.319c-20.705 0-41.41-0.075-62.114 0.028-12.087 0.06-17.892 4.884-17.425 14.521 0.557 11.47 8.087 13.638 17.152 13.632 41.8-0.028 83.6 0.058 125.398-0.048 12.467-0.032 17.692-4.517 17.24-14.506-0.515-11.362-7.657-13.777-16.968-13.69-21.091 0.198-42.188 0.063-63.283 0.063zM418.16 103.58v-58.962c0-2.457 0.057-4.916-0.027-7.37-0.328-9.599-1.681-18.852-13.663-18.46-11.872 0.389-12.772 9.863-12.925 19.316-0.127 7.777-0.028 15.56-0.028 23.339 0 33.985-0.003 67.97 0.005 101.955 0.001 3.274-0.207 6.584 0.157 9.818 0.945 8.41 5.09 13.8 13.674 13.511 8.556-0.289 12.645-5.735 12.694-14.359 0.13-22.928 0.044-45.858 0.044-68.788h0.069zM781.5 510.276c20.683 0.001 41.367-0.045 62.05 0.022 9.382 0.031 16.432-3.102 16.461-14.324 0.028-10.954-7.512-13.5-15.954-13.529-42.537-0.151-85.075-0.139-127.613-0.008-8.886 0.028-16.916 2.5-16.595 14.117 0.317 11.424 8.416 13.62 17.26 13.677 21.462 0.135 42.927 0.044 64.391 0.045z"  horiz-adv-x="1024" />

    
    <glyph glyph-name="06" unicode="&#59043;" d="M922.582451 269.585449h-27.631422V633.296822c0 45.335998-36.227863 82.075555-82.177893 82.075555H212.454927c-22.105137 0-43.289226-8.391765-58.742355-23.742555-15.555467-15.453128-24.561263-36.125525-24.561263-58.333v-363.711373h-25.379972c-19.341995 0-36.227863-15.146112-36.227863-34.488107V135.624225c0-45.745353 38.069958-83.098941 83.508295-83.09894h723.022187c46.052369 0 82.38257 37.455926 82.38257 83.09894v99.473117c0.102339 19.341995-14.532081 34.488107-33.874075 34.488107zM199.150909 633.296822c0 6.959025 6.140316 11.461923 13.304018 11.461923h600.318209c7.368379 0 12.178293-4.912253 12.178293-11.461923v-363.711373H199.150909V633.296822zM886.456926 135.624225c0-6.856686-5.219268-13.09934-12.38297-13.09934H151.051769c-6.856686 0-13.508695 5.935639-13.508695 13.09934v63.859285h748.913852V135.624225z"  horiz-adv-x="1024" />

    
    <glyph glyph-name="icon-test" unicode="&#58892;" d="M734.884788-21.693836c-12.551874 0-25.391297 3.421936-38.140669 10.08366L530.383184 75.694215c-7.79657 4.142343-29.245068 4.033873-36.915771 0l-166.378331-87.303368c-31.766494-16.549931-66.360384-11.813047-86.385463 11.921517-9.31004 10.984169-19.413142 30.578436-14.154371 60.975747l31.748074 184.800913c1.619894 9.580193-4.448312 28.237111-11.417027 35.008328L112.465956 412.115338c-21.447475 20.889773-29.53364 47.839565-21.645996 72.15946 7.977695 24.329105 30.43415 41.382503 60.07626 45.723367l185.988972 26.948769c9.616008 1.414209 25.589818 12.921287 29.948079 21.700231l83.143629 168.151721c13.236466 26.850531 36.503379 42.894949 62.093196 42.89495 25.697265 0 48.855708-16.045441 62.199621-42.89495l83.144652-168.151721c4.339842-8.679683 20.2236-20.286022 29.839609-21.700231l185.791473-26.948769c29.642111-4.339842 52.080146-21.394263 60.075237-45.723367 7.995091-24.419156-0.107447-51.378158-21.645996-72.266907L776.952906 281.204799c-6.969739-6.771217-13.037944-25.428136-11.417027-35.026748l31.748074-184.818309c5.258771-30.361495-4.844332-49.954739-14.154371-60.939931-12.029988-14.334473-29.137621-22.113647-48.244794-22.113647zM511.961626 124.244978c14.567787 0 29.02915-2.718925 39.654139-8.266268l166.378331-87.321787c10.822486-5.636371 21.034059-10.193153 30.343075 0.917905 4.448312 5.240351 5.870708 13.632485 4.142344 24.130584l-31.766494 184.800913c-4.232394 24.329105 6.788613 58.040904 24.49181 75.292823l134.520763 130.910539c4.249791 4.142343 13.650905 14.739702 10.103102 25.634843-3.529383 10.79588-17.503653 13.929244-23.266913 14.83794l-185.89892 26.949792c-24.473391 3.538593-53.195549 24.419156-64.10911 46.532803L533.320073 726.718549c-2.647293 5.240351-9.921977 17.557888-21.357424 17.557888-11.417027 0-18.711154-12.21009-21.23258-17.557888L407.495366 558.459381c-10.93198-22.10546-39.761586-42.995233-64.234977-46.524617L157.360446 484.985995c-5.852288-0.810459-19.809161-4.043083-23.356964-14.838963-3.547803-10.79588 5.870708-21.50171 10.103102-25.535583l134.629233-131.000589c17.702174-17.171078 28.723182-50.990325 24.473391-75.302033l-31.748075-184.800913c-1.836835-10.409071-0.414439-18.781762 4.141321-24.023137 7.275707-8.572236 20.421098-6.15928 30.344098-0.917905l166.378332 87.321787c10.516518 5.54632 25.085328 8.356318 39.636742 8.356319z"  horiz-adv-x="1024" />

    
    <glyph glyph-name="icon-chakanxq" unicode="&#58931;" d="M448.379519 3.714857H229.405295c-76.147284 0-138.071635 61.926398-138.071635 138.072659V694.075081c0 76.148307 61.924351 138.073682 138.071635 138.073682H724.524836c76.146261 0 138.072659-61.925375 138.072659-138.073682v-276.143271H793.557072V694.075081c0 38.039361-30.927383 69.036329-69.033259 69.036329H229.405295c-38.038338 0-69.035306-30.996968-69.035306-69.036329v-552.287565c0-38.1069 30.996968-69.036329 69.035306-69.036329h218.974224v-69.03633zM229.405295 625.038752h495.118518v-69.035306H229.405295v69.035306zM932.665317-15.338081l-98.097202 98.099249c17.534352 26.993794 28.02938 59.09491 28.02938 93.543489 0 94.925976-77.664847 172.5898-172.590824 172.589801S517.417895 271.22961 517.417895 176.304657c0-94.92393 77.663824-172.5898 172.588776-172.5898 35.622312 0 68.759013 10.909467 96.374978 29.617552l97.478102-97.480149 48.805566 48.809659z m-242.659669 88.089268c-57.091276 0-103.555517 46.461171-103.555517 103.55347 0 57.093323 46.464241 103.554494 103.555517 103.554494S793.557072 233.39798 793.557072 176.304657c0-57.092299-46.460148-103.553471-103.551424-103.55347zM229.405295 486.967116h495.118518v-69.036329H229.405295v69.036329zM229.405295 348.894458h218.974224v-69.035307H229.405295v69.035307z"  horiz-adv-x="1024" />

    
    <glyph glyph-name="wangluo1" unicode="&#58891;" d="M909.989 552.719c-21.76 51.446-52.904 97.643-92.568 137.307-39.663 39.664-85.86 70.808-137.306 92.568-53.28 22.536-109.858 33.962-168.164 33.962S397.067 805.13 343.787 782.594c-51.446-21.76-97.643-52.904-137.307-92.568-39.664-39.664-70.808-85.86-92.568-137.307-22.536-53.28-33.962-109.858-33.962-168.164s11.426-114.884 33.962-168.164c21.76-51.445 52.904-97.643 92.568-137.306 39.664-39.664 85.86-70.809 137.307-92.568 53.28-22.535 109.858-33.962 168.164-33.962s114.884 11.427 168.164 33.962c51.445 21.76 97.643 52.904 137.306 92.568 39.664 39.663 70.809 85.86 92.568 137.306 22.535 53.28 33.962 109.858 33.962 168.164s-11.427 114.884-33.962 168.164zM543.951 519.97c17.57 0.243 35.095 0.683 52.536 1.368a1990.762 1990.762 0 0 1 91.131 5.678c10.157-34.378 16.643-71.314 19.389-110.46H543.951V519.97z m0 64.069V732.59c17.617-12.176 39.372-29.845 61.074-54.197 23.42-26.28 43.109-56.138 58.784-89.019-41.937-3.147-82.117-4.783-119.858-5.335z m-64 144.763v-144.705a2038.572 2038.572 0 0 0-103.41 4.309 1929.6 1929.6 0 0 0-11.183 0.786c15.195 31.915 34.175 60.991 56.676 86.711 20.284 23.185 40.722 40.49 57.917 52.899zM370.842 524.646a2124.301 2124.301 0 0 1 109.109-4.606v-103.484H322.25c2.742 39.079 9.208 75.96 19.335 110.285 9.453-0.776 19.21-1.512 29.257-2.195z m-112.731-108.09H145.342c3.916 45.757 16.208 89.778 36.139 130.276 20.257-3.578 52.836-8.759 95.407-13.641-9.902-36.699-16.182-75.682-18.777-116.635z m-0.859-64c1.975-39.144 9.712-78.242 23.101-116.799-44.093-4.976-77.797-10.319-98.621-13.992-20.08 40.64-32.458 84.841-36.39 130.792h111.91z m64.098 0h158.601v-104.048c-36.37-0.602-72.818-2.13-109.109-4.601-8.41-0.573-16.612-1.182-24.609-1.821-14.322 36.523-22.659 73.543-24.883 110.47z m158.601-168.103v-131.712c-16.974 15.877-36.574 35.962-56.038 59.735-18.064 22.064-33.892 44.698-47.379 67.668a2038.38 2038.38 0 0 0 103.417 4.309z m64-136.665V184.513c34.387-0.503 70.782-1.903 108.68-4.527-13.467-22.915-29.263-45.496-47.286-67.509-21.547-26.32-43.262-48.119-61.394-64.689z m52.536 199.426a2063.187 2063.187 0 0 1-52.536 1.384V352.556h163.958c-2.227-36.975-10.582-74.045-24.939-110.615a1994.972 1994.972 0 0 1-86.483 5.273z m175.521 105.342H878.56c-3.928-45.898-16.283-90.051-36.322-130.652a1822.84 1822.84 0 0 1-93.476 13.439c13.478 38.691 21.264 77.929 23.246 117.213z m-0.859 64c-2.605 41.111-8.924 80.238-18.891 117.061a1821.491 1821.491 0 0 1 90.233 13.075c19.89-40.46 32.158-84.432 36.07-130.136H771.149z m1.017 228.215a373.188 373.188 0 0 0 34.046-39.155 1772.853 1772.853 0 0 0-75.117-9.98c-19.529 46.785-45.825 88.91-78.291 125.338a423.863 423.863 0 0 1-5.386 5.927c46.185-18.263 88.573-45.955 124.748-82.13zM384.81 730.077a420.788 420.788 0 0 1-8.355-9.102c-32.552-36.525-58.904-78.775-78.449-125.71-32.357 3.484-59.48 7.244-80.226 10.469a373.386 373.386 0 0 0 33.956 39.037c38.338 38.338 83.654 67.152 133.074 85.306zM251.736 124.341a373.444 373.444 0 0 0-33.584 38.548c22.526 3.498 52.529 7.614 88.626 11.328 18.229-35.542 41.31-70.356 68.867-103.808a678.068 678.068 0 0 1 35.727-39.995c-59.757 16.875-114.524 48.814-159.636 93.927z m368.249-91.745a677.032 677.032 0 0 1 33.629 37.814c27.469 33.344 50.487 68.043 68.689 103.466a1780.315 1780.315 0 0 0 83.528-10.88 373.34 373.34 0 0 0-33.665-38.654c-43.23-43.232-95.324-74.373-152.181-91.746z"  horiz-adv-x="1024" />

    
    <glyph glyph-name="ziyuan-xianxing" unicode="&#59556;" d="M512 700.8L741.6 624 512 547.2 282.4 624 512 700.8m0 67.2L128 640v-32l384-128 384 128v32L512 768z m0-389.6l-320 104h-64v-32l384-128 384 128v32h-64l-320-104zM512 216L192 320h-64v-32l384-128 384 128v32h-64L512 216z m0-160L192 160h-64v-32l384-128 384 128v32h-64l-320-104z"  horiz-adv-x="1024" />

    
    <glyph glyph-name="plus" unicode="&#58894;" d="M896 426.666667H554.666667V768a42.666667 42.666667 0 0 1-85.333334 0v-341.333333H128a42.666667 42.666667 0 0 1 0-85.333334h341.333333v-341.333333a42.666667 42.666667 0 0 1 85.333334 0V341.333333h341.333333a42.666667 42.666667 0 0 1 0 85.333334z"  horiz-adv-x="1024" />

    
    <glyph glyph-name="shouquan" unicode="&#58922;" d="M524.8 288c-160 0-288 128-288 288S364.8 864 524.8 864s288-128 288-288-128-288-288-288z m0 512C403.2 800 300.8 697.6 300.8 576s102.4-224 224-224 224 102.4 224 224-102.4 224-224 224zM140.8-96c-19.2 0-32 12.8-32 32 0 230.4 185.6 416 416 416 102.4 0 198.4-38.4 275.2-102.4 12.8-12.8 12.8-32 0-44.8-12.8-12.8-32-12.8-44.8 0-64 57.6-147.2 89.6-236.8 89.6-192 0-352-160-352-352 6.4-25.6-6.4-38.4-25.6-38.4zM640-96l-140.8 140.8c-12.8 12.8-12.8 32 0 44.8 12.8 12.8 32 12.8 44.8 0l96-96 294.4 294.4c12.8 12.8 32 12.8 44.8 0s12.8-32 0-44.8L640-96z"  horiz-adv-x="1024" />

    
    <glyph glyph-name="jiesuo" unicode="&#58936;" d="M832.8 448.2H255.3v64.2C255.3 653.9 370.5 769 512 769c119.2 0 218.8-82.1 247.5-192.5h66.8C796.4 722.5 666.5 833.2 512 833.2c-176.5 0-320.8-144.4-320.8-320.8v-64.2c-35.3 0-64.2-28.9-64.2-64.2v-385c0-35.3 28.9-64.2 64.2-64.2h641.7c35.3 0 64.2 28.9 64.2 64.2V384c-0.1 35.3-29 64.2-64.3 64.2z m0-449.2H191.2V384h641.7v-385z"  horiz-adv-x="1024" />

    
    <glyph glyph-name="carry-out" unicode="&#59268;" d="M525.9 787.1v-253.1h-270.9v-300h270.8v-253.1l423.2 403.1-423.1 403.1zM575.9 534v136.4l300.6-286.4-300.6-286.4v186.4h-270.9v200h270.8v50zM165 534h50v-300h-50zM75 534h50v-300h-50z"  horiz-adv-x="1024" />

    
    <glyph glyph-name="shanchu" unicode="&#59277;" d="M416 512c-19.2 0-32-12.8-32-32v-320c0-19.2 12.8-32 32-32s32 12.8 32 32v320c0 19.2-12.8 32-32 32zM928 704h-224v32c0 54.4-41.6 96-96 96h-192c-54.4 0-96-41.6-96-96v-32h-224c-19.2 0-32-12.8-32-32s12.8-32 32-32h64v-608c0-54.4 41.6-96 96-96h512c54.4 0 96 41.6 96 96v608h64c19.2 0 32 12.8 32 32s-12.8 32-32 32z m-544 32c0 19.2 12.8 32 32 32h192c19.2 0 32-12.8 32-32v-32h-256v32z m416-704c0-19.2-12.8-32-32-32h-512c-19.2 0-32 12.8-32 32v608h576v-608zM608 512c-19.2 0-32-12.8-32-32v-320c0-19.2 12.8-32 32-32s32 12.8 32 32v320c0 19.2-12.8 32-32 32z"  horiz-adv-x="1024" />

    
    <glyph glyph-name="quanju_kongzhi" unicode="&#58887;" d="M844.032 739.392a46.72 46.72 0 0 0 46.656-46.656v-442.752a46.72 46.72 0 0 0-46.656-46.656H179.968a46.72 46.72 0 0 0-46.656 46.656V692.672a46.72 46.72 0 0 0 46.656 46.656h664.064m0 64.064H179.968c-61.12 0-110.656-49.536-110.656-110.656v-442.752c0-61.184 49.536-110.656 110.656-110.656h664.128c61.12 0 110.656 49.472 110.656 110.656V692.672a110.72 110.72 0 0 1-110.72 110.72zM480 194.56h64v-223.04h-64zM787.904-31.936H234.432a32 32 0 0 0 0 64h553.472a32 32 0 0 0 0-64z"  horiz-adv-x="1024" />

    
    <glyph glyph-name="lvzhou_zhongqi" unicode="&#58935;" d="M358.4 382.86222222000004c0 28.90524445-23.43253333 52.33777778-52.33777778 52.33777778H88.74666667c-28.90524445 0-52.33777778-23.43253333-52.33777778-52.33777778s23.43253333-52.33777778 52.33777778-52.33777777h217.31555555c28.90524445 0 52.33777778 23.43253333 52.33777778 52.33777777zM330.98069333 274.91783110999995L177.31470222 121.25070222c-20.43790222-20.43790222-20.43904-53.57681778 0-74.01585777 20.44017778-20.44017778 53.57795555-20.44017778 74.01813333 0l153.66485334 153.66485333c20.44017778 20.44017778 20.44017778 53.57795555 0 74.01813333-20.44017778 20.43904-53.57795555 20.43904-74.01699556 0zM514.27555555 231.53777778000006c-28.90410667 0-52.33777778-23.43253333-52.33777777-52.33777778v-217.31669333C461.93777778-67.01966221999999 485.37031111-90.45333332999996 514.27555555-90.45333332999996c28.90638222 0 52.33777778 23.43139555 52.33777778 52.33777778V179.20000000000005c0 28.90638222-23.43139555 52.33777778-52.33777778 52.33777778zM696.23694222 278.13546667c-20.44017778 20.44017778-53.57568 20.44017778-74.01585777 0-20.43904-20.43904-20.44017778-53.57795555 0-74.01813334l153.6659911-153.66599111c20.43790222-20.43790222 53.57681778-20.43790222 74.01585778 0.00113778 20.44017778 20.44017778 20.44131555 53.57568 0 74.01699555L696.23694222 278.13546667zM935.25219555 439.75111111h-217.31555555c-28.90638222 0-52.33664-23.43139555-52.33777778-52.33777778 0.00113778-28.90524445 23.43367111-52.33777778 52.34005333-52.33777778h217.31555556c28.90296889 0 52.33550222 23.43367111 52.33550222 52.33777778 0 28.90638222-23.42912 52.33777778-52.33777778 52.33777778zM693.02044445 495.35886222l153.6659911 153.66599111c20.43790222 20.43790222 20.43676445 53.57681778-0.00227555 74.01472-20.44017778 20.44017778-53.57568 20.44245333-74.01699555 0L619.00117333 569.37472c-20.44017778-20.44017778-20.43904-53.57568 0-74.01699555 20.44017778-20.43790222 53.57909333-20.43904 74.01927112 0.00113777zM509.72444445 538.7366400000001c28.90524445 0.00113778 52.33777778 23.43367111 52.33777777 52.34005333v217.31555556c0 28.90296889-23.43367111 52.33550222-52.33777777 52.33550222-28.90638222 0-52.33777778-23.42912-52.33777778-52.33777778v-217.31555555c0-28.90752 23.43025778-52.33664 52.33777778-52.33777778zM327.76305778 492.13895111c20.44017778-20.44017778 53.57568-20.43790222 74.01699555 0 20.43790222 20.44017778 20.43904 53.57909333-0.00113778 74.01927111L248.11292445 719.82307555c-20.43790222 20.43790222-53.57681778 20.43676445-74.01585778-0.00227555-20.44017778-20.44017778-20.44131555-53.57454222 0-74.01699555l153.66599111-153.66485334z"  horiz-adv-x="1024" />

    
    <glyph glyph-name="bushu" unicode="&#59238;" d="M128 832h768a64 64 0 0 0 64-64v-192a64 64 0 0 0-64-64H128a64 64 0 0 0-64 64V768a64 64 0 0 0 64 64z m32-64a32 32 0 0 1-32-32v-128a32 32 0 0 1 32-32h704a32 32 0 0 1 32 32V736a32 32 0 0 1-32 32H160z m576-32h64a32 32 0 0 0 32-32v-64a32 32 0 0 0-32-32h-64a32 32 0 0 0-32 32V704a32 32 0 0 0 32 32zM128 448h768a64 64 0 0 0 64-64v-384a64 64 0 0 0-64-64H128a64 64 0 0 0-64 64V384a64 64 0 0 0 64 64z m32-64a32 32 0 0 1-32-32v-320a32 32 0 0 1 32-32h704a32 32 0 0 1 32 32V352a32 32 0 0 1-32 32H160z m96-32a32 32 0 0 0 32-32v-256a32 32 0 0 0-64 0v256a32 32 0 0 0 32 32z m128 0a32 32 0 0 0 32-32v-256a32 32 0 0 0-64 0v256a32 32 0 0 0 32 32z m128 0a32 32 0 0 0 32-32v-256a32 32 0 0 0-64 0v256a32 32 0 0 0 32 32z m128 0a32 32 0 0 0 32-32v-256a32 32 0 0 0-64 0v256a32 32 0 0 0 32 32z m128 0a32 32 0 0 0 32-32v-256a32 32 0 0 0-64 0v256a32 32 0 0 0 32 32z"  horiz-adv-x="1024" />

    
    <glyph glyph-name="ceshishenqing" unicode="&#60257;" d="M607.232 0a32 32 0 1 0 0-64H192a96 96 0 0 0-96 96V736a96 96 0 0 0 96 96h544a96 96 0 0 0 96-96 32 32 0 0 0-64 0 32 32 0 0 1-32 32H192a32 32 0 0 1-32-32v-704a32 32 0 0 1 32-32h415.232zM832 310.24v-146.656c0-42.656-64-42.656-64 0v146.656c0 42.688 64 42.688 64 0zM288 576a32 32 0 1 0 0 64h224a32 32 0 0 0 0-64H288zM288 416a32 32 0 0 0 0 64h128a32 32 0 0 0 0-64H288zM639.424-30.592a32 32 0 1 0-64 0L576 96a96 96 0 0 0 96 96l127.744-1.152a32 32 0 1 0 0-64L672 128a32 32 0 0 1-32-32l-0.576-126.592zM637.92-51.648a32 32 0 1 0-44.32 46.208l180.384 172.992a32 32 0 1 0 44.288-46.176l-180.352-173.024zM880.896 561.472a31.424 31.424 0 0 1 3.328 44.416l-0.416 0.512a32 32 0 0 1-44.896 3.36L408.32 243.712l-15.2-51.84 58.336 4.544 429.44 365.056z m51.616 86.4a95.36 95.36 0 0 0-9.408-134.496l-438.08-372.448a32 32 0 0 0-18.24-7.52l-114.944-8.896a32 32 0 0 0-33.184 40.928l30.944 105.472a32 32 0 0 0 9.984 15.36L797.408 658.496a96 96 0 0 0 134.688-10.112l0.416-0.512z"  horiz-adv-x="1024" />

    
    <glyph glyph-name="kuozhan" unicode="&#58912;" d="M99.5 611.2h61.3v74l260.3-260.3 43.4 43.4L198.8 734h84.8v61.4H99.5zM869.1 70.2L603.4 336 560 292.6l260.3-260.4h-73.9v-61.3h184.1V155h-61.4zM160.1 153.6H98.7v-184.1h184.2v61.3h-68.6l263.1 263.1-43.4 43.4-273.9-273.9zM742 794v-61.3h90.2l-263-263.1 43.4-43.4 252.2 252.2v-68.5h61.4V794z"  horiz-adv-x="1024" />

    
    <glyph glyph-name="zidingyi" unicode="&#60266;" d="M727.008 408.768l194.016 184.32a99.2 99.2 0 0 1 0 140.288l-48.416 48.416a99.2 99.2 0 0 1-138.464 1.76L544.64 603.616l-184.064 196.64-1.504 1.568a64.832 64.832 0 0 1-91.712 0.384L129.184 664.032a64.8 64.8 0 0 1-1.12-90.144l181.344-193.728-171.456-162.88a99.264 99.264 0 0 1-28.256-49.28l-28.992-123.744a65.632 65.632 0 0 1 82.4-77.92l119.296 35.136a99.744 99.744 0 0 1 40.32 23.232l169.056 160.608 203.616-217.536 1.504-1.568a64.832 64.832 0 0 1 91.712-0.384l138.176 138.176a64.8 64.8 0 0 1 1.12 90.144l-200.896 214.624zM319.424 109.824l-90.112 90.112a31.488 31.488 0 0 1-9.792 6.496L667.104 631.648l94.272-94.272c1.408-1.408 3.168-2.08 4.768-3.168L319.424 109.824zM778.208 737.216a35.2 35.2 0 0 0 49.12-0.64l48.416-48.416c13.76-13.76 13.76-36.032-0.64-50.4l-64.448-61.216c-1.28 2.08-2.24 4.288-4.064 6.112l-93.12 93.12 64.736 61.44zM288.512 496.096c8 0.128 16 3.168 22.112 9.28l48 48a31.968 31.968 0 1 1-45.248 45.248l-48-48a31.68 31.68 0 0 1-8.928-20.256L174.816 617.6c-0.512 0.512-0.512 1.024-0.352 1.152L312.64 756.96c0.128 0.128 0.672 0.128 1.248-0.416l184.384-196.992-142.432-135.328-67.328 71.872zM145.024 27.712a1.6 1.6 0 0 0-2.016 1.92l28.992 123.744c0.992 4.16 2.944 7.968 5.312 11.488a31.808 31.808 0 0 1 6.752-10.144l88.288-88.288a35.072 35.072 0 0 0-8-3.552l-119.328-35.168z m598.336-16.672c-0.128-0.128-0.672-0.128-1.248 0.416l-125.6 134.176a31.232 31.232 0 0 1 14.08 7.712l48 48a31.968 31.968 0 1 1-45.248 45.248l-48-48a31.68 31.68 0 0 1-7.296-11.904l-39.904 42.656 142.432 135.328 200.576-214.304c0.48-0.512 0.48-1.024 0.352-1.152l-138.144-138.176z"  horiz-adv-x="1024" />

    
    <glyph glyph-name="guaqi" unicode="&#58966;" d="M512 853.333333A469.333333 469.333333 0 0 1 42.666667 384 469.333333 469.333333 0 1 1 512 853.333333z m0-878.506666A409.173333 409.173333 0 0 0 102.826667 384a409.173333 409.173333 0 0 0 818.346666 0A409.173333 409.173333 0 0 0 512-25.173333zM768 341.333333H256v85.333334h512z"  horiz-adv-x="1024" />

    
    <glyph glyph-name="icon_shezhi" unicode="&#60301;" d="M482.88 784l-17.28-90.688-20.64-4.512a309.696 309.696 0 0 1-99.776-41.088l-18.688-11.84-73.28 55.04-44.64-44.64 51.904-76.416-11.392-17.76a310.016 310.016 0 0 1-41.568-99.584l-4.8-21.6-90.72-12.896v-63.104l90.688-17.312 4.512-20.64a309.984 309.984 0 0 1 41.088-99.776l11.84-18.688-55.04-73.28 44.64-44.64 76.416 51.904 17.76-11.392a310.016 310.016 0 0 1 99.584-41.568l21.6-4.8 12.896-90.72h63.104l17.312 90.688 20.64 4.512a309.984 309.984 0 0 1 99.776 41.088l18.688 11.84 73.28-55.04 44.64 44.64-51.904 76.416 11.392 17.76a310.016 310.016 0 0 1 41.568 99.584l4.8 21.6 90.72 12.896V413.12l-90.688 17.312-4.512 20.64a309.984 309.984 0 0 1-41.088 99.776l-11.84 18.688 55.04 73.28-44.64 44.64-76.416-51.904-17.76 11.392a310.144 310.144 0 0 1-99.584 41.568l-21.6 4.8-12.896 90.72H482.88zM410.56 746.144l19.424 101.856h171.584l14.624-102.624c28-8.064 54.848-19.328 80.128-33.568l85.792 58.304 121.344-121.344-62.272-82.88c14.08-25.408 25.152-52.352 32.96-80.416l101.888-19.424v-171.584l-102.624-14.624a373.92 373.92 0 0 0-33.568-80.128l58.304-85.792-121.344-121.344-82.88 62.272c-25.408-14.08-52.352-25.152-80.416-32.96l-19.424-101.888h-171.584l-14.624 102.624a373.92 373.92 0 0 0-80.128 33.568L241.92-2.112l-121.344 121.344 62.272 82.88a373.824 373.824 0 0 0-32.96 80.416L48 301.952v171.584l102.624 14.624c8.064 27.968 19.328 54.848 33.568 80.128L125.888 654.08l121.344 121.344 82.88-62.272a373.856 373.856 0 0 0 80.416 32.96zM512 192a192 192 0 1 0 0 384 192 192 0 0 0 0-384z m0 64a128 128 0 1 1 0 256 128 128 0 0 1 0-256z"  horiz-adv-x="1024" />

    
    <glyph glyph-name="icon_yingyongguanli" unicode="&#60303;" d="M192 736a32 32 0 0 1-32-32v-192a32 32 0 0 1 32-32h192a32 32 0 0 1 32 32V704a32 32 0 0 1-32 32H192z m0 64h192a96 96 0 0 0 96-96v-192a96 96 0 0 0-96-96H192a96 96 0 0 0-96 96V704a96 96 0 0 0 96 96zM192 288a32 32 0 0 1-32-32v-192a32 32 0 0 1 32-32h192a32 32 0 0 1 32 32v192a32 32 0 0 1-32 32H192z m0 64h192a96 96 0 0 0 96-96v-192a96 96 0 0 0-96-96H192a96 96 0 0 0-96 96v192a96 96 0 0 0 96 96zM640 288a32 32 0 0 1-32-32v-192a32 32 0 0 1 32-32h192a32 32 0 0 1 32 32v192a32 32 0 0 1-32 32h-192z m0 64h192a96 96 0 0 0 96-96v-192a96 96 0 0 0-96-96h-192a96 96 0 0 0-96 96v192a96 96 0 0 0 96 96zM602.272 629.728a32 32 0 0 1 0-45.28l112-112a32 32 0 0 1 45.28 0l112 112a32 32 0 0 1 0 45.28l-112 112a32 32 0 0 1-45.28 0l-112-112z m-45.248 45.248l112 112a96 96 0 0 0 135.776 0l112-112a96 96 0 0 0 0-135.776l-112-112a96 96 0 0 0-135.776 0l-112 112a96 96 0 0 0 0 135.776z"  horiz-adv-x="1024" />

    
    <glyph glyph-name="icon_shiyongwendang" unicode="&#60305;" d="M288 576a32 32 0 1 0 0 64h448a32 32 0 0 0 0-64H288zM288 352a32 32 0 0 0 0 64h448a32 32 0 0 0 0-64H288zM288 128a32 32 0 0 0 0 64h128a32 32 0 0 0 0-64H288zM807.968 93.76a32 32 0 0 0 41.984-48.32l-153.856-133.6a32 32 0 0 0-20.992-7.84H195.04C140.16-96 96-50.624 96 4.928V763.072C96 818.624 140.16 864 195.04 864h633.92C883.84 864 928 818.624 928 763.072v-564.32a32 32 0 1 0-64 0V763.072C864 783.68 848.096 800 828.96 800H195.04C175.904 800 160 783.68 160 763.072v-758.144C160-15.68 175.904-32 195.04-32h468.096l144.832 125.76zM704-63.136a32 32 0 1 0-64 0v186.24C640 178.592 684.16 224 739.04 224h157.632a32 32 0 0 0 0-64h-157.632c-19.136 0-35.04-16.32-35.04-36.928v-186.24z"  horiz-adv-x="1024" />

    
    <glyph glyph-name="gengduo" unicode="&#59930;" d="M288 320a64 64 0 1 0-0.032 127.968A64 64 0 0 0 288 320z m224 0a64 64 0 1 0-0.032 127.968A64 64 0 0 0 512 320z m224 0a64 64 0 1 0-0.032 127.968A64 64 0 0 0 736 320z"  horiz-adv-x="1024" />

    
    <glyph glyph-name="zuzhiqunzu" unicode="&#60376;" d="M960 192h-63.616v167.392a32 32 0 0 1-32 32H544V480h160a32 32 0 0 1 32 32V800a32 32 0 0 1-32 32H320a32 32 0 0 1-32-32v-288a32 32 0 0 1 32-32h160v-88.608H161.984a32 32 0 0 1-32-31.968L129.792 192H64a32 32 0 0 1-32-32v-192a32 32 0 0 1 32-32h192a32 32 0 0 1 32 32v192a32 32 0 0 1-32 32H193.792l0.16 135.392H480V192h-64a32 32 0 0 1-32-32v-192a32 32 0 0 1 32-32h192a32 32 0 0 1 32 32v192a32 32 0 0 1-32 32h-64v135.392h288.384V192H768a32 32 0 0 1-32-32v-192a32 32 0 0 1 32-32h192a32 32 0 0 1 32 32v192a32 32 0 0 1-32 32zM352 768h320v-224H352V768zM224 0H96v128h128v-128z m352 0h-128v128h128v-128z m352 0h-128v128h128v-128z"  horiz-adv-x="1024" />

    
    <glyph glyph-name="guige" unicode="&#59022;" d="M950.972 85.16h-67.584V696.133l86 82.797a33.632 33.632 0 0 1 0.962 48.045 33.792 33.792 0 0 1-48.045 0.961l-82.638-80.075H187.376V814.804a33.792 33.792 0 0 1-33.632 33.151 33.792 33.792 0 0 1-33.631-33.632v-66.622h-32.03a33.792 33.792 0 0 1-33.632-33.632 33.792 33.792 0 0 1 33.632-33.631h32.03V85.16h-32.03a33.632 33.632 0 0 1-33.632-33.632 33.632 33.632 0 0 1 33.632-33.471h32.03v-65.501a33.792 33.792 0 0 1 33.631-33.472 33.792 33.792 0 0 1 33.632 33.632v65.34h629.39v-48.044a33.632 33.632 0 0 1 32.99-34.913 33.632 33.632 0 0 1 33.632 33.632v48.045h67.584a33.632 33.632 0 0 1 33.631 33.471 33.632 33.632 0 0 1-33.631 33.632z m-180.65 595.278L187.376 119.112V679.637zM248.873 85.16l567.893 546.272V85.16z"  horiz-adv-x="1024" />

    
    <glyph glyph-name="youjian" unicode="&#59373;" d="M849.454545 81.454545h-674.90909A58.228364 58.228364 0 0 0 116.363636 139.636364V604.672l345.716364-268.008727a81.408 81.408 0 0 1 99.84 0L907.636364 604.672V139.636364c0-32.093091-26.088727-58.181818-58.181819-58.181819z m0 581.818182c5.725091 0 11.147636-1.093818 16.384-2.629818l-346.693818-268.8a11.589818 11.589818 0 0 0-14.289454 0L158.161455 660.642909c5.236364 1.536 10.658909 2.629818 16.384 2.629818h674.90909z m0 69.818182h-674.90909A128.162909 128.162909 0 0 1 46.545455 605.090909v-465.454545C46.545455 69.073455 103.982545 11.636364 174.545455 11.636364h674.90909c70.562909 0 128 57.437091 128 128v465.454545C977.454545 675.653818 920.017455 733.090909 849.454545 733.090909z"  horiz-adv-x="1024" />

    
    <glyph glyph-name="wuliji" unicode="&#59148;" d="M224.768 639.04h63.488a32 32 0 0 1 0 64h-63.488a32 32 0 0 1 0-64zM224.768 511.68h63.488a32 32 0 0 1 0 64h-63.488a32 32 0 0 1 0-64zM224.768 384h63.488a32 32 0 0 1 0 64h-63.488a32 32 0 0 1 0-64zM384.512 832.192H128.896a64 64 0 0 1-64-64v-768.384a64 64 0 0 1 64-64h255.616a64 64 0 0 1 64 64V768.192a64 64 0 0 1-64 64z m0-800.384a32 32 0 0 0-32-32H160.896a32 32 0 0 0-32 32V736.192a32 32 0 0 0 32 32h191.616a32 32 0 0 0 32-32v-704.384zM256.64 191.616m-63.872 0a63.872 63.872 0 1 1 127.744 0 63.872 63.872 0 1 1-127.744 0ZM735.424 639.04h63.488a32 32 0 0 1 0 64h-63.488a32 32 0 0 1 0-64zM735.424 511.68h63.488a32 32 0 0 1 0 64h-63.488a32 32 0 0 1 0-64zM735.424 384h63.488a32 32 0 0 1 0 64h-63.488a32 32 0 0 1 0-64zM895.104 832.192H639.488a64 64 0 0 1-64-64v-768.384a64 64 0 0 1 64-64h255.616a64 64 0 0 1 64 64V768.192a64 64 0 0 1-64 64z m0-800.384a32 32 0 0 0-32-32h-191.616a32 32 0 0 0-32 32V736.192a32 32 0 0 0 32 32h191.616a32 32 0 0 0 32-32v-704.384zM767.232 191.616m-63.872 0a63.872 63.872 0 1 1 127.744 0 63.872 63.872 0 1 1-127.744 0Z"  horiz-adv-x="1024" />

    
    <glyph glyph-name="yunzhuji2" unicode="&#59149;" d="M896 318.336H384a64 64 0 0 1-64-64v-190.592a64 64 0 0 1 64-64h512a64 64 0 0 1 64 64v190.592a64 64 0 0 1-64 64z m0-222.528a32 32 0 0 0-32-32h-448a32 32 0 0 0-32 32v126.592a32 32 0 0 0 32 32h448a32 32 0 0 0 32-32v-126.592zM735.424 192.384h-62.72a32.64 32.64 0 1 1 0-65.28h62.72a32.64 32.64 0 1 1 0 65.28zM355.392 597.824a228.16 228.16 0 0 0 192 105.408c103.616 0 190.336-69.696 218.304-164.352 5.696-19.2 9.728-42.496 10.112-63.424 4.608-0.32 9.28-3.072 13.696-3.904a133.248 133.248 0 0 0 97.408-74.88 32.384 32.384 0 0 1 57.536 29.056c-0.064 0.128 0.064-0.128 0 0-0.768 1.856-2.048 3.584-3.136 5.248a196.352 196.352 0 0 1-105.472 94.656c-24.32 137.6-144 242.624-288.448 242.624-114.752 0-213.248-66.816-261.504-163.008C162.688 599.488 64 498.304 64 373.76c0-93.952 61.952-174.016 145.088-210.368a60.8 60.8 0 0 1 6.592-2.944c0.896-0.384-0.896 0.384 0 0 2.368-0.576 5.696-1.408 8.256-1.408a30.848 30.848 0 1 1 10.752 59.904v0.064a167.36 167.36 0 0 0-105.728 154.688c0 80.128 56.64 147.2 131.968 163.584 11.52 2.496 23.424 4.032 35.648 4.032 11.072 0 21.824-1.216 32.256-3.264 6.208 21.312 14.848 41.536 26.56 59.776z"  horiz-adv-x="1024" />

    
    <glyph glyph-name="xianxing_qingdan" unicode="&#58917;" d="M861.44 832H162.56a32 32 0 0 1-32-32v-832a32 32 0 0 1 32-32h698.88a32 32 0 0 1 32 32V800a32 32 0 0 1-32 32z m-32-832H194.56V768h634.88zM345.6 352h233a32 32 0 0 1 0 64h-233a32 32 0 0 1 0-64zM345.6 210.51h332.8a32 32 0 0 1 0 64H345.6a32 32 0 0 1 0-64zM345.6 493.49h332.8a32 32 0 0 1 0 64H345.6a32 32 0 0 1 0-64z"  horiz-adv-x="1024" />

    
    <glyph glyph-name="daochu" unicode="&#58933;" d="M894.6 363.7c-17.5 0-31.7-14.2-31.7-31.7v-251c0-23.3-19-42.3-42.3-42.3H203.7c-23.3 0-42.3 19-42.3 42.3V662.3c0 23.3 19 42.3 42.3 42.3h270.7c17.5 0 31.7 14.2 31.7 31.7S492 768 474.4 768H203.7C145.4 768 98 720.6 98 662.3V81c0-58.3 47.4-105.7 105.7-105.7h616.9c58.3 0 105.7 47.4 105.7 105.7V332c0 17.5-14.2 31.7-31.7 31.7zM253.1 207.1c98.5 93.2 197.9 237.3 373.7 228 12.4-0.7 22.1-10.4 22.1-22.9v-61c-0.1-19.2 22.2-29.9 37.1-17.8l227.9 184.3c11.3 9.1 11.3 26.4-0.1 35.5L687 757.2c-14.9 12-38.1 1.4-38.2-17.7v-61.8c0-11.6-7.9-20-19.3-22.6-302.5-69-379-423.6-376.4-448z"  horiz-adv-x="1024" />

    
    <glyph glyph-name="yumingguanli" unicode="&#59084;" d="M512-45.8c-74.9 0-148.7 19.6-213.4 56.6-62.7 35.9-115.8 87.5-153.5 149.1l42.6 26.1c33.4-54.4 80.3-100 135.7-131.8 57.1-32.7 122.3-50 188.6-50 66.5 0 131.9 17.4 189.1 50.3 55.6 32 102.6 77.8 135.9 132.6l42.7-26c-37.7-62-90.8-113.9-153.7-150-64.8-37.2-138.8-56.9-214-56.9zM175.6 561.1l-44.2 23.3C167.3 652.6 221 710 286.7 750.5c67.6 41.7 145.5 63.7 225.3 63.7 79.8 0 157.7-22 225.3-63.7C803 710 856.7 652.6 892.7 584.4l-44.2-23.3c-31.8 60.3-79.3 111.1-137.3 146.9-59.7 36.8-128.5 56.2-199.1 56.2-70.5 0-139.4-19.5-199.1-56.2-58.2-35.8-105.7-86.6-137.4-146.9zM263.9 287.6c-1.2 7.2-3.9 16.8-7.5 28.5l-23.1 70.7c-0.6 1.2-2.4 7.8-5.7 20.1-1.5-5.4-5.1-17.7-6-20.7l-23.1-70.1c-3.3-10.2-6.6-22.2-7.8-28.5H156c-1.8 8.7-3 13.2-7.8 28.5l-33 106.4c-4.2 13.8-8.4 26.1-12.6 37.2H147c0.6-8.7 3.3-24 6.6-35.7l16.5-58.4c1.2-3.9 3-12.3 5.4-24 0.6 3 5.7 20.7 6.9 24.3l21.6 65.3c3 8.7 6.6 22.5 7.5 28.5h32.1c0.9-5.7 4.8-19.8 7.5-28.5l22.2-68c0.9-2.7 2.4-8.4 4.2-14.7 0.9-3.9 1.2-4.2 1.8-6.9 0.6 2.4 0.6 2.4 1.5 6.6 0.9 4.2 3 13.8 3.6 15.9l16.8 59.9c3.6 12.9 6 26.1 6.6 35.7h44.1c-3.9-9.9-4.5-12.3-12.3-37.2l-33.3-106.4c-4.5-14.4-6-20.1-7.5-28.5h-34.9zM302.1 283.6h-41.5l-0.6 3.4c-1.3 7.7-4.4 18.4-7.4 28l-23 70.5c-0.4 0.9-1 2.7-2.1 6.7-0.9-3.1-1.7-5.7-2.1-7v-0.1L202.3 315c-3.3-10.2-6.5-21.9-7.7-28l-0.6-3.3h-41.3l-0.7 3.2c-1.7 8.4-2.8 12.6-7.7 28.1l-33 106.4c-4 13.2-8.2 25.6-12.5 36.9l-2 5.4h53.9l0.3-3.7c0.6-9 3.4-24 6.5-34.9l16.5-58.4c0.6-1.8 1.2-4.5 2-8.1 1.1 3.8 2.1 7.2 2.6 8.6l21.6 65.3c2.9 8.4 6.4 21.9 7.3 27.8l0.5 3.4h39l0.5-3.4c0.8-5.1 4.5-18.6 7.4-27.9l22.2-68c0.5-1.4 1.1-3.5 1.8-6.1 0.7 3 1.3 5.8 1.6 6.9l16.8 59.9c3.4 12.4 5.9 25.4 6.5 34.8l0.2 3.8h53.7l-2.2-5.5c-3.2-8.2-4.1-11.1-9-26.8-0.9-2.9-1.9-6.2-3.2-10.1L310 314.9c-4.5-14.3-5.9-19.8-7.4-28l-0.5-3.3z m-34.8 8h28.1c1.4 7 3.1 13.1 7 25.7l33.3 106.4c1.2 3.9 2.2 7.2 3.2 10.1 3.7 11.9 5.2 16.6 7.1 21.9h-34.6c-0.9-9.5-3.3-21.4-6.4-32.7l-16.8-60c-0.5-1.8-2.4-10.2-3.5-15.6-0.9-4.2-0.9-4.3-1.5-6.7l-4.1-16.4-3.7 16.5c-0.3 1.1-0.4 1.8-0.7 2.6-0.3 1-0.6 2.1-1.1 4.2-0.6 2.3-1.3 4.4-1.8 6.4-1 3.4-1.8 6.4-2.3 8l-22.2 68c-2.1 6.9-5.4 18.5-7 25.7h-25.4c-1.5-7.1-4.5-18.4-7-25.8l-21.6-65.3c-1.3-3.9-6.2-21.1-6.8-23.8l-3.9-19.4-4 19.3c-2.4 11.5-4.2 19.9-5.3 23.6l-16.5 58.5c-2.8 9.9-5.4 23.2-6.4 32.8h-34.9c3.7-10 7.2-20.8 10.7-32l33-106.4c4.1-13.1 5.6-18.4 7.2-25.7h28.3c1.5 6.7 4.4 16.8 7.2 25.7l23.1 70.1c1 3.2 4.5 15.4 6 20.6l3.9 14.1 3.8-14.2c2.2-8 4.8-18 5.4-19.4l0.2-0.5 23.1-70.7c2.5-8.4 5.3-17.9 6.9-25.6zM548.7 287.6c-1.2 7.2-3.9 16.8-7.5 28.5l-23.1 70.7c-0.6 1.2-2.4 7.8-5.7 20.1-1.5-5.4-5.1-17.7-6-20.7l-23.1-70.1c-3.3-10.2-6.6-22.2-7.8-28.5h-34.8c-1.8 8.7-3 13.2-7.8 28.5l-33 106.4c-4.2 13.8-8.4 26.1-12.6 37.2h44.4c0.6-8.7 3.3-24 6.6-35.7l16.5-58.4c1.2-3.9 3-12.3 5.4-24 0.6 3 5.7 20.7 6.9 24.3l21.6 65.3c3 8.7 6.6 22.5 7.5 28.5h32.1c0.9-5.7 4.8-19.8 7.5-28.5l22.2-68c0.9-2.7 2.4-8.4 4.2-14.7 0.9-3.9 1.2-4.2 1.8-6.9 0.6 2.4 0.6 2.4 1.5 6.6 0.9 4.2 3 13.8 3.6 15.9l16.8 59.9c3.6 12.9 6 26.1 6.6 35.7h44.1c-3.9-9.9-4.5-12.3-12.3-37.2L591 316.1c-4.5-14.4-6-20.1-7.5-28.5h-34.8zM586.8 283.6h-41.5l-0.6 3.3c-1.3 7.7-4.4 18.4-7.4 28l-23 70.5c-0.4 0.9-0.9 2.6-2.1 6.7-0.9-3.1-1.7-5.7-2.1-7v-0.1L487 314.9c-3.3-10.2-6.5-21.9-7.7-28l-0.6-3.3h-41.3l-0.7 3.2c-1.7 8.4-2.8 12.6-7.7 28.1l-33 106.4c-4 13.2-8.2 25.6-12.5 36.9l-2 5.4h53.9l0.3-3.7c0.6-9 3.4-24 6.5-34.9l16.5-58.4c0.6-1.8 1.2-4.5 2-8.1 1.1 3.8 2.1 7.2 2.6 8.6l21.6 65.3c2.9 8.4 6.4 21.9 7.3 27.8l0.5 3.4h38.9l0.5-3.4c0.8-5.1 4.5-18.5 7.4-27.9l22.2-68c0.5-1.4 1.1-3.5 1.8-6.1 0.7 3 1.3 5.8 1.6 6.9l16.8 59.9c3.4 12.4 5.9 25.4 6.5 34.8l0.2 3.8h53.7l-2.2-5.5c-3.2-8.2-4.1-11-9-26.8-0.9-2.9-1.9-6.2-3.2-10.1l-33.3-106.4c-4.5-14.3-5.9-19.8-7.4-28l-0.4-3.2z m-34.8 8h28.1c1.4 7 3.1 13.1 7 25.7l33.3 106.4c1.2 3.9 2.3 7.2 3.2 10.1 3.7 11.8 5.2 16.5 7.1 21.8h-34.6c-0.9-9.5-3.3-21.4-6.4-32.7L572.9 363c-0.5-1.8-2.4-10.2-3.5-15.6-0.9-4.2-0.9-4.3-1.5-6.7l-4.1-16.4-3.7 16.5c-0.3 1.1-0.4 1.8-0.7 2.6-0.3 1-0.6 2.1-1.1 4.2-0.6 2.3-1.3 4.5-1.8 6.4-0.9 3.4-1.8 6.4-2.3 8L532 430c-2.1 6.9-5.4 18.5-7 25.7h-25.4c-1.5-7.1-4.5-18.4-7-25.8L471 364.6c-1.3-3.9-6.2-21.1-6.8-23.8l-3.9-19.4-4 19.3c-2.4 11.5-4.2 19.9-5.3 23.6l-16.5 58.5c-2.8 9.9-5.4 23.2-6.4 32.8h-34.9c3.7-10 7.2-20.8 10.7-32l33-106.4c4.1-13.1 5.6-18.4 7.2-25.7h28.3c1.5 6.7 4.4 16.8 7.2 25.7l23.1 70.1c1 3.2 4.5 15.3 6 20.6l3.9 14.1 3.8-14.2c2.2-8 4.8-18 5.4-19.4l0.2-0.5 23.1-70.7c2.5-8.4 5.3-17.9 6.9-25.6zM833.4 287.6c-1.2 7.2-3.9 16.8-7.5 28.5l-23.1 70.7c-0.6 1.2-2.4 7.8-5.7 20.1-1.5-5.4-5.1-17.7-6-20.7L768 316.1c-3.3-10.2-6.6-22.2-7.8-28.5h-34.8c-1.8 8.7-3 13.2-7.8 28.5l-33 106.4c-4.2 13.8-8.4 26.1-12.6 37.2h44.4c0.6-8.7 3.3-24 6.6-35.7l16.5-58.4c1.2-3.9 3-12.3 5.4-24 0.6 3 5.7 20.7 6.9 24.3l21.6 65.3c3 8.7 6.6 22.5 7.5 28.5H813c0.9-5.7 4.8-19.8 7.5-28.5l22.2-68c0.9-2.7 2.4-8.4 4.2-14.7 0.9-3.9 1.2-4.2 1.8-6.9 0.6 2.4 0.6 2.4 1.5 6.6 0.9 4.2 3 13.8 3.6 15.9l16.8 59.9c3.6 12.9 6 26.1 6.6 35.7h44.1c-3.9-9.9-4.5-12.3-12.3-37.2l-33.3-106.4c-4.5-14.4-6-20.1-7.5-28.5h-34.8zM871.5 283.6H830l-0.6 3.3c-1.3 7.7-4.4 18.4-7.4 28l-23 70.5c-0.4 0.9-0.9 2.6-2.1 6.7-0.9-3.1-1.7-5.7-2.1-7v-0.1l-23.1-70.1c-3.3-10.2-6.5-21.9-7.7-28l-0.6-3.3h-41.3l-0.7 3.2c-1.7 8.4-2.8 12.5-7.7 28.1l-33 106.4c-4 13.1-8.2 25.6-12.5 36.9l-2 5.4h53.9l0.3-3.7c0.6-9 3.4-24 6.5-34.9l16.5-58.4c0.6-1.8 1.2-4.5 2-8.1 1.1 3.8 2.1 7.2 2.6 8.6l21.6 65.3c2.9 8.4 6.4 21.9 7.3 27.8l0.5 3.4h38.9l0.5-3.4c0.8-5.1 4.5-18.5 7.4-27.9l22.2-68c0.5-1.4 1.1-3.5 1.8-6.1 0.7 3 1.3 5.8 1.6 6.9l16.8 59.9c3.4 12.4 5.9 25.4 6.5 34.8l0.2 3.8H927l-2.2-5.5c-3.2-8.2-4.1-11-9-26.8-0.9-2.9-1.9-6.2-3.2-10.1l-33.3-106.4c-4.5-14.3-5.9-19.8-7.4-28l-0.4-3.2z m-34.8 8h28.1c1.4 7 3.1 13.1 7 25.7l33.3 106.4c1.2 3.9 2.3 7.2 3.2 10.1 3.7 11.8 5.2 16.5 7.1 21.8h-34.6c-0.9-9.5-3.3-21.4-6.4-32.7L857.6 363c-0.5-1.8-2.4-10.2-3.5-15.6-0.9-4.2-0.9-4.3-1.5-6.7l-4.1-16.4-3.7 16.5c-0.3 1.1-0.4 1.8-0.7 2.6-0.3 1-0.6 2.1-1.1 4.2-0.6 2.3-1.3 4.4-1.8 6.4-0.9 3.4-1.8 6.4-2.3 8l-22.2 68c-2.1 6.9-5.4 18.5-7 25.7h-25.4c-1.5-7.1-4.5-18.4-7-25.8l-21.6-65.3c-1.3-3.9-6.2-21.2-6.8-23.8l-3.9-19.4-4 19.3c-2.4 11.5-4.2 19.9-5.3 23.6l-16.5 58.5c-2.8 9.9-5.4 23.2-6.4 32.8h-34.9c3.7-10 7.2-20.8 10.7-32l33-106.4c4.1-13.1 5.6-18.5 7.2-25.7H757c1.5 6.7 4.4 16.8 7.2 25.7l23.1 70.1c1 3.2 4.5 15.3 6 20.6l3.9 14.1 3.8-14c2.2-8 4.8-18 5.4-19.4l0.2-0.5 23.1-70.7c2.6-8.6 5.4-18.1 7-25.8z"  horiz-adv-x="1024" />

    
    <glyph glyph-name="wenjianjia" unicode="&#60439;" d="M912 688H427.872l-50.368 94.176A63.936 63.936 0 0 1 321.056 816H112c-35.296 0-64-28.704-64-64v-736c0-35.296 28.704-64 64-64h800c35.296 0 64 28.704 64 64v608c0 35.296-28.704 64-64 64z m-800 64h209.056l68.448-128H912v-97.984c-0.416 0-0.8 0.128-1.216 0.128H113.248c-0.416 0-0.8-0.128-1.248-0.128V752z m0-736v96l1.248 350.144 798.752-1.216V112h0.064v-96H112z"  horiz-adv-x="1024" />

    
    <glyph glyph-name="shenpi" unicode="&#59135;" d="M896-32H128c-17.6 0-32 14.4-32 32s14.4 32 32 32h768c17.6 0 32-14.4 32-32s-14.4-32-32-32z m0 128H128c-17.6 0-32 14.4-32 32V288c0 52.8 43.2 96 96 96h204.8c-6.4 38.4-25.6 75.2-52.8 107.2-36.8 41.6-56 94.4-56 148.8 0 60.8 24 118.4 68.8 161.6 44.8 43.2 102.4 64 164.8 62.4C636.8 859.2 734.4 760 736 644.8c1.6-57.6-20.8-113.6-59.2-156.8-27.2-28.8-43.2-64-49.6-104H832c52.8 0 96-43.2 96-96v-160c0-17.6-14.4-32-32-32z m-736 64h704V288c0 17.6-14.4 32-32 32H592c-17.6 0-32 14.4-32 32 0 67.2 24 131.2 68.8 179.2 28.8 30.4 43.2 70.4 43.2 112-1.6 83.2-70.4 153.6-153.6 156.8-44.8 1.6-86.4-14.4-116.8-44.8-32-30.4-49.6-72-49.6-115.2 0-38.4 14.4-76.8 40-105.6 46.4-52.8 72-116.8 72-182.4 0-17.6-14.4-32-32-32H192c-17.6 0-32-14.4-32-32v-128z"  horiz-adv-x="1024" />

    
    <glyph glyph-name="pifu1" unicode="&#59203;" d="M772.8 800v-64L936 574.4l-91.2-91.2c-12.8 11.2-27.2 16-43.2 16-36.8 0-65.6-28.8-65.6-65.6V96c0-35.2-28.8-64-64-64H352c-35.2 0-64 28.8-64 64V433.6c0 36.8-28.8 65.6-65.6 65.6-16 0-32-6.4-43.2-16L88 574.4 249.6 736h40l1.6-1.6C336 667.2 420.8 624 512 624c91.2 0 176 41.6 220.8 110.4 0 1.6 1.6 1.6 1.6 1.6h38.4V800m-481.6 0H256c-22.4 0-38.4-6.4-49.6-19.2L43.2 619.2c-25.6-25.6-25.6-65.6 0-89.6l94.4-94.4c11.2-11.2 27.2-17.6 41.6-17.6s30.4 6.4 41.6 17.6h1.6c1.6 0 1.6 0 1.6-1.6V96c0-70.4 57.6-128 128-128h320c70.4 0 128 57.6 128 128V433.6c0 1.6 0 1.6 1.6 1.6h1.6c11.2-11.2 27.2-17.6 41.6-17.6 16 0 30.4 6.4 41.6 17.6l94.4 94.4c25.6 25.6 25.6 65.6 0 89.6L819.2 780.8C806.4 793.6 790.4 800 772.8 800h-40c-22.4 0-41.6-11.2-54.4-30.4-33.6-49.6-96-81.6-168-81.6s-134.4 33.6-168 81.6C332.8 788.8 312 800 291.2 800z"  horiz-adv-x="1024" />

    
    <glyph glyph-name="kaiqi" unicode="&#58898;" d="M310 765.3c-31.3 0-52.4-19.9-52.4-49.5v-659.6c0-30.9 25.9-53.4 61.5-53.4 17 0 32.8 5.3 43.9 14.7l444.6 309.3 1.2 1.1c13.3 12.2 20.6 28.4 20.6 45.7s-7.3 33.5-20.6 45.7l-2.1 1.7-443.3 324.9c-13.6 11.8-34.3 19.4-53.4 19.4z"  horiz-adv-x="1024" />

    
    <glyph glyph-name="host" unicode="&#59359;" d="M72 804v-360h880V804H72z m830-310H122V754h780v-260zM702 184h100v-80H702v80zM252 594h-50v80h50v-80z m-50-410h50v-80h-50v80z m114 0h50v-80h-50v80z m50 410h-50v80h50v-80z m436 0H702v80h100v-80zM72-36h880V324H72v-360z m50 310h780v-260H122V274z"  horiz-adv-x="1024" />

    
    <glyph glyph-name="gongdan" unicode="&#60471;" d="M704 480H320a32 32 0 0 1 0-64h384a32 32 0 0 1 0 64zM704 288H320a32 32 0 0 1 0-64h384a32 32 0 0 1 0 64zM832 864H192C139.072 864 96 820.928 96 768v-768c0-52.928 43.072-96 96-96h640c52.928 0 96 43.072 96 96V768c0 52.928-43.072 96-96 96zM320 800h384v-96H320V800z m544-800a32 32 0 0 0-32-32H192c-17.632 0-32 14.336-32 32V768c0 17.632 14.368 32 32 32h64v-96c0-35.296 28.704-64 64-64h384c35.296 0 64 28.704 64 64V800h64c17.664 0 32-14.368 32-32v-768z"  horiz-adv-x="1024" />

    
    <glyph glyph-name="fabu" unicode="&#58921;" d="M766.1 15.1L539.5 126.2c-16.9 8.3-24 28.7-15.7 45.7 4 8.1 11 14.3 19.5 17.3 8.6 2.9 17.9 2.4 26.1-1.6l185.8-91.2 80.2 549.1-361.2-433.4v-201.4c0-18.8-15.3-34.1-34.1-34.1S406-8.1 406 10.7V223.3c0 1.8 0.1 3.5 0.4 5.3 0.8 6.6 3.5 12.9 7.7 18L754.4 655 208.8 371.9l128.6-66.7c16.9-8.9 23.6-29.5 15.3-46.6-3.8-7.9-10.7-13.9-19-16.8-8.3-2.9-17.4-2.3-25.3 1.5l-186 96.8c-7.1 3.7-12.7 9.7-15.9 17-4.2 7.9-5.1 17.2-2.5 25.7 2.6 8.6 8.5 15.8 16.5 20l749.6 388.9c5 2.6 10.6 3.9 16.2 3.9 16.7 0.3 31.1-11.5 34.1-27.9 1.1-5.5 0.9-11.1-0.6-16.5L816.1 41.1c-2.2-15.4-14.3-26.8-28.9-29-7.2-1.3-14.6-0.3-21.1 3z m0 0"  horiz-adv-x="1024" />

    
    <glyph glyph-name="tuihuozhong" unicode="&#59087;" d="M829.8-126.8H194.4c-82.5 0-149.5 67.1-149.5 149.5V658.2c0 82.5 67.1 149.5 149.5 149.5h70.4v-66.6h-70.4c-45.7 0-82.9-37.2-82.9-82.9v-635.4c0-45.7 37.2-82.9 82.9-82.9h635.4c45.7 0 82.9 37.2 82.9 82.9V658.2c0 45.7-37.2 82.9-82.9 82.9h-89.6V807.7h89.6c82.5 0 149.5-67.1 149.5-149.5v-635.4c0-82.5-67-149.6-149.5-149.6zM657 828.5c36.7 0 66.5-29.9 66.5-66.5 0-36.7-29.9-66.5-66.5-66.5H367.2c-36.7 0-66.5 29.9-66.5 66.5 0 36.7 29.9 66.5 66.5 66.5H657m0 66.7H367.2C293.7 895.2 234 835.6 234 762c0-73.5 59.7-133.2 133.2-133.2H657c73.5 0 133.2 59.7 133.2 133.2C790 835.6 730.5 895.2 657 895.2zM356.5 277.1c-8.2 0-16.4 3.1-22.6 9.4l-68.8 68.8c-7.4 7.4-11.5 17.3-11.5 27.8s4.1 20.4 11.5 27.8l68.1 68.1c12.5 12.5 32.8 12.5 45.3 0s12.5-32.8 0-45.3L327.8 383l51.3-51.3c12.5-12.5 12.5-32.8 0-45.3-6.2-6.2-14.4-9.3-22.6-9.3zM594.4 63.7H406.7c-17.7 0-32 14.3-32 32s14.3 32 32 32h187.7c61.8 0 112 50.2 112 112s-50.2 112-112 112H316.7c-17.7 0-32 14.3-32 32s14.3 32 32 32h277.7c97 0 176-79 176-176 0-97.1-78.9-176-176-176z"  horiz-adv-x="1024" />

    
    <glyph glyph-name="liebiao" unicode="&#60523;" d="M64 416h352V768H64v-352z m64 288h224v-224H128V704zM64-32h352V320H64v-352z m64 288h224v-224H128v224zM526.848 672H928a32 32 0 1 1 0 64H526.848a32 32 0 0 1 0-64zM928 288H526.848a32 32 0 1 1 0-64H928a32 32 0 1 1 0 64zM928 512H526.848a32 32 0 0 1 0-64H928a32 32 0 1 1 0 64zM928 64H526.848a32 32 0 1 1 0-64H928a32 32 0 1 1 0 64z"  horiz-adv-x="1024" />

    
    <glyph glyph-name="shenqing" unicode="&#58981;" d="M360.597-30.64H210.89c-45.646 0-82.782 37.136-82.782 82.782V715.109c0 45.646 37.136 82.782 82.782 82.782h537.403c45.646 0 82.781-37.136 82.781-82.782v-193.206c0-17.673-14.327-32-32-32s-32 14.327-32 32V715.109c0 10.181-8.601 18.782-18.781 18.782H210.89c-10.181 0-18.782-8.601-18.782-18.782v-662.966c0-10.181 8.601-18.782 18.782-18.782h149.707c17.673 0 32-14.327 32-32s-14.327-32.001-32-32.001zM618.585 571.65H292.35c-17.673 0-32 14.327-32 32s14.327 32 32 32h326.235c17.673 0 32-14.327 32-32s-14.327-32-32-32zM574.587 414.906H292.601c-17.673 0-32 14.327-32 32s14.327 32 32 32h281.986c17.673 0 32-14.327 32-32s-14.327-32-32-32zM482.592 254.915h-188.99c-17.673 0-32 14.327-32 32s14.327 32 32 32h188.99c17.673 0 32-14.327 32-32s-14.327-32-32-32zM453.311-25.976l-3.156 146.626c-5.508 17.409 2.855 35.333 12.959 46.674l263.139 295.372c7.36 8.262 17.431 13.394 28.355 14.45 11.676 1.129 23.359-2.65 32.029-10.374l108.471-96.634c17.425-15.523 18.743-42.595 2.954-60.387l-66.067-74.886c-11.692-13.254-31.915-14.519-45.166-2.826-13.253 11.691-14.519 31.914-2.826 45.166l52.461 59.464-76.253 67.932-246.373-276.553a60.84 60.84 0 0 0 0.272-4.618l1.675-77.806 68.047 7.82a81.528 81.528 0 0 1 3.246 3.442l0.226 0.251 135.027 148.398c11.894 13.07 32.131 14.026 45.205 2.133 13.071-11.895 14.026-32.133 2.133-45.205L634.747 14.182c-3.284-3.678-8.309-8.94-13.809-13.396-12.6-10.207-23.772-12.293-32.53-11.236l-135.097-15.526z m-2.105 143.727a0.203 0.203 0 0 1 0.011-0.026c-0.005 0.008-0.008 0.017-0.011 0.026zM803.003 224.035c-8.355 0-16.701 3.252-22.977 9.725l-98.864 101.965c-12.302 12.688-11.989 32.947 0.699 45.25 12.688 12.3 32.946 11.989 45.249-0.699l98.864-101.965c12.302-12.688 11.989-32.947-0.699-45.25-6.215-6.027-14.248-9.026-22.272-9.026z"  horiz-adv-x="1024" />

    
    <glyph glyph-name="quxiaodingdan" unicode="&#58924;" d="M733.090909 192.861091l54.272 55.412364a29.090909 29.090909 0 1 0 41.565091-40.704L773.818182 151.272727l55.109818-56.32a29.090909 29.090909 0 1 0-41.565091-40.680727L733.090909 109.684364l-54.272-55.412364a29.090909 29.090909 0 1 0-41.565091 40.704L692.363636 151.272727l-55.109818 56.32a29.090909 29.090909 0 1 0 41.565091 40.680728l54.272-55.412364zM438.272 23.272727a34.909091 34.909091 0 0 0 0-69.818182H209.454545A151.272727 151.272727 0 0 0 58.181818 104.727273V733.090909A151.272727 151.272727 0 0 0 209.454545 884.363636h488.727273A151.272727 151.272727 0 0 0 849.454545 733.090909v-265.960727a34.909091 34.909091 0 0 0-69.818181 0V733.090909A81.454545 81.454545 0 0 1 698.181818 814.545455H209.454545A81.454545 81.454545 0 0 1 128 733.090909v-628.363636A81.454545 81.454545 0 0 1 209.454545 23.272727h228.817455zM256 605.137455a34.909091 34.909091 0 0 0 0 69.818181h372.363636a34.909091 34.909091 0 0 0 0-69.818181H256z m0-186.181819a34.909091 34.909091 0 0 0 0 69.818182h372.363636a34.909091 34.909091 0 1 0 0-69.818182H256z m0-186.135272a34.909091 34.909091 0 1 0 0 69.818181h139.636364a34.909091 34.909091 0 0 0 0-69.818181h-139.636364z m465.454545-330.682182c-137.588364 0-249.134545 111.546182-249.134545 249.134545S583.866182 400.407273 721.454545 400.407273 970.589091 288.861091 970.589091 151.272727 859.042909-97.861818 721.454545-97.861818z m0 58.181818a190.952727 190.952727 0 1 1 0 381.905455 190.952727 190.952727 0 0 1 0-381.905455z"  horiz-adv-x="1024" />

    
    <glyph glyph-name="yonghu1" unicode="&#58883;" d="M682.225853 425.234021c8.511293 8.511293 21.278232 17.022585 29.789524 29.789524 51.067756 59.579048 72.345987 136.180682 59.579048 217.037962-17.022585 114.902451-106.391158 204.271023-221.293608 221.293609-93.624219 12.766939-182.992792-21.278232-242.57184-89.368573-46.812109-63.834695-72.345987-140.436328-59.579049-217.037962 12.766939-63.834695 42.556463-119.158097 93.624219-161.71456-148.947621-51.067756-255.338779-191.504084-255.338779-353.218644v-93.624219C86.435368-81.187891 133.247478-128 192.826526-128h638.346948c59.579048 0 106.391158 46.812109 106.391158 106.391158v93.624219c0 161.71456-106.391158 302.150888-255.338779 353.218644zM375.819318 744.407495c34.045171 42.556463 85.112926 63.834695 136.180682 63.834694 8.511293 0 17.022585 0 29.789524-4.255646 76.601634-12.766939 136.180682-76.601634 148.947621-148.947621 8.511293-55.323402-8.511293-106.391158-42.556463-144.691975-42.556463-46.812109-102.135512-72.345987-165.970206-59.579048-76.601634 12.766939-136.180682 76.601634-148.947621 148.947621-8.511293 51.067756 8.511293 106.391158 42.556463 144.691975z m476.632387-766.016337c0-12.766939-8.511293-21.278232-21.278231-21.278232h-638.346948c-12.766939 0-21.278232 8.511293-21.278231 21.278232v93.624219c0 161.71456 131.925036 289.383949 289.383949 289.383949h97.879865c161.71456 0 289.383949-131.925036 289.38395-289.383949v-93.624219z"  horiz-adv-x="1024" />

    
    <glyph glyph-name="yincangbukejian" unicode="&#59531;" d="M253.6 216.8l109.6 109.6C356 344 352 363.2 352 384c0 88 72 160 160 160 20.8 0 40-4 57.6-11.2l82.4 82.4c-44.8 16-92 24.8-140 24.8-168 0-329.6-106.4-384-256 24-65.6 68.8-123.2 125.6-167.2zM416 384v-4.8L516.8 480H512c-52.8 0-96-43.2-96-96z m354.4 167.2l163.2 163.2L888 760 134.4 6.4l45.6-45.6 192.8 192.8A390.4 390.4 0 0 1 512 128c167.2 0 330.4 106.4 384.8 256-24 65.6-69.6 123.2-126.4 167.2zM512 224c-20 0-40 4-57.6 11.2l53.6 53.6h4.8c52.8 0 96 43.2 96 96v4.8l53.6 53.6C668 424 672 404 672 384c0-88-72-160-160-160z"  horiz-adv-x="1024" />

    
    <glyph glyph-name="peizhi" unicode="&#59099;" d="M616.3 359.2l195.9-195.9c20.5-20.5 20.5-53.9 0-74.4-20.7-20.7-54.3-20.5-74.8 0.4L539.8 291c-13.8 16.9-37.1 21.4-57 12.6-18.7-8.3-38.9-13.9-60.1-16.3-81.3-9-156.5 37-199.2 106.9-29.6 48.4-32.4 93-24.9 133.9l101.8-101.7c18.5-18.5 48.5-18.5 67 0L463 522c18.5 18.5 18.5 48.5 0 67.1L360.1 691.8c12.9 2.6 26.2 4 39.9 4 102.6 0 187.8-75.9 202.5-174.5 2.4-16.2 16.4-28.1 32.8-28.1 20.4 0 36.4 18.1 33.4 38.3C649.1 662.3 536.3 762.7 400 762.7c-33 0-64.5-6.2-93.8-17-32.3-12-41.3-53.3-16.9-77.6L402 555.4l-68-68-113 113c-24 24-64.7 14.9-76.2-17l-0.4-1c-17.8-49.8-22.4-105.9-5.9-165C166.9 316.1 253.9 238 358 222.3c47.4-7.1 92.8-2 133.7 12.7l196-196c48.1-48.1 126-48.1 174.1 0 48.1 48.1 48.1 126 0 174.1L666 408.8c-13.5 13.5-35.4 13.7-49.2 0.5-14.1-13.7-14.4-36.2-0.5-50.1z"  horiz-adv-x="1024" />

    
    <glyph glyph-name="guanbi" unicode="&#59073;" d="M499.456045-127.996302a469.331639 469.331639 0 0 0-179.626018 903.250071 42.666513 42.666513 0 0 0 55.893132-23.466582 42.666513 42.666513 0 0 0-23.039917-55.466466 383.998613 383.998613 0 0 1-237.22581-354.985385 383.998613 383.998613 0 1 1 655.357633 271.35902 378.878632 378.878632 0 0 1-124.586216 85.333026 42.666513 42.666513 0 0 0-23.039917 55.466466 42.666513 42.666513 0 0 0 55.893131 23.466582 469.331639 469.331639 0 0 0 152.31945-101.972965A469.331639 469.331639 0 0 0 499.456045-127.996302z m0 597.331176a42.666513 42.666513 0 0 0-42.666512 42.666513v341.3321a42.666513 42.666513 0 1 0 85.333025 0v-341.3321a42.666513 42.666513 0 0 0-42.666513-42.666513z"  horiz-adv-x="1024" />

    
    <glyph glyph-name="mima" unicode="&#59075;" d="M788.081778 460.8c41.585778 0 75.292444-34.389333 75.292444-76.8v-358.4c0-42.410667-33.706667-76.8-75.292444-76.8H235.918222c-41.585778 0-75.292444 34.389333-75.292444 76.8V384c0 42.410667 33.706667 76.8 75.292444 76.8h552.163556z m0 76.8H235.918222C152.746667 537.6 85.333333 468.821333 85.333333 384v-358.4C85.333333-59.221333 152.746667-128 235.918222-128h552.163556C871.253333-128 938.666667-59.221333 938.666667 25.6V384c0 84.821333-67.413333 153.6-150.584889 153.6zM512 819.2c97.024 0 175.672889-80.213333 175.672889-179.2v-102.4H336.327111V640c0 98.986667 78.648889 179.2 175.672889 179.2zM512 896c-138.609778 0-250.993778-114.631111-250.993778-256v-179.2h501.987556V640c0 141.368889-112.355556 256-250.993778 256z m0-806.4c-20.792889 0-37.660444 17.180444-37.660444 38.4v153.6c0 21.219556 16.867556 38.4 37.660444 38.4 20.792889 0 37.660444-17.180444 37.660444-38.4V128c0-21.219556-16.867556-38.4-37.660444-38.4z"  horiz-adv-x="1024" />

    
    <glyph glyph-name="tingzhi" unicode="&#58942;" d="M511.474 11.89c-205.692 0-373.042 167.083-373.042 372.46 0 205.371 167.35 372.46 373.042 372.46 205.698 0 373.042-167.089 373.042-372.46 0-205.376-167.344-372.46-373.042-372.46m0 819.412c-246.84 0-447.649-200.496-447.649-446.951 0-246.457 200.809-446.951 447.649-446.951 246.842 0 447.649 200.494 447.649 446.951 0 246.455-200.808 446.951-447.649 446.951m127.768-580.701V517.4c0 20.573-16.701 37.247-37.301 37.247-20.606 0-37.307-16.675-37.307-37.247v-266.799c0-20.574 16.701-37.249 37.307-37.249 20.601 0 37.301 16.675 37.301 37.249m-179.876 0V517.4c0 20.573-16.701 37.247-37.301 37.247-20.606 0-37.307-16.675-37.307-37.247v-266.799c0-20.574 16.701-37.249 37.307-37.249 20.6 0 37.301 16.675 37.301 37.249"  horiz-adv-x="1024" />

    


  </font>
</defs>
</svg>
